<?xml version="1.0" encoding="utf-8"?>
<!-- Generator: Adobe Illustrator 16.0.4, SVG Export Plug-In . SVG Version: 6.00 Build 0)  -->
<!DOCTYPE svg PUBLIC "-//W3C//DTD SVG 1.1//EN" "http://www.w3.org/Graphics/SVG/1.1/DTD/svg11.dtd">
<svg version="1.1" xmlns="http://www.w3.org/2000/svg" xmlns:xlink="http://www.w3.org/1999/xlink" x="0px" y="0px" width="60px"
	 height="60px" viewBox="0 0 60 60" enable-background="new 0 0 60 60" xml:space="preserve">
<g id="creative_skills">
	<g display="none">
		<linearGradient id="SVGID_1_" gradientUnits="userSpaceOnUse" x1="3.7852" y1="3.9062" x2="56.3362" y2="56.4573">
			<stop  offset="0" style="stop-color:#32297C"/>
			<stop  offset="1" style="stop-color:#282761"/>
		</linearGradient>
		<rect x="3.392" y="4.299" display="inline" opacity="0.95" fill="url(#SVGID_1_)" width="53.338" height="51.765"/>
		<g display="inline">
			
				<image overflow="visible" opacity="0.4" width="275" height="269" xlink:href="44B24520A26BC495.png"  transform="matrix(0.24 0 0 0.24 -2.8823 -0.8921)">
			</image>
			<g>
				<g>
					<linearGradient id="SVGID_2_" gradientUnits="userSpaceOnUse" x1="1.0938" y1="1.7593" x2="58.9064" y2="58.2416">
						<stop  offset="0" style="stop-color:#95C8FD"/>
						<stop  offset="1" style="stop-color:#73B4F4"/>
					</linearGradient>
					<path fill="url(#SVGID_2_)" d="M1.094,1.759v56.482h57.812V1.759H1.094z M54.312,53.767H5.811V6.354h48.501V53.767z"/>
				</g>
			</g>
		</g>
		<g display="inline">
			<g opacity="0.1">
				<path d="M16.29,19.249c1.561-0.284,3.724-0.496,6.666-0.496c3.191,0,5.531,0.673,7.056,1.949
					c1.418,1.171,2.341,3.05,2.341,5.283c0,2.269-0.709,4.148-2.057,5.425c-1.737,1.738-4.467,2.553-7.552,2.553
					c-0.816,0-1.56-0.036-2.127-0.142v9.006H16.29V19.249z M20.616,30.382c0.532,0.142,1.241,0.178,2.127,0.178
					c3.262,0,5.248-1.596,5.248-4.396c0-2.659-1.844-4.077-4.858-4.077c-1.206,0-2.056,0.105-2.517,0.213V30.382z"/>
			</g>
			<g>
				<linearGradient id="SVGID_3_" gradientUnits="userSpaceOnUse" x1="16.1367" y1="29.4648" x2="44.9234" y2="29.4648">
					<stop  offset="0" style="stop-color:#95C8FD"/>
					<stop  offset="1" style="stop-color:#73B4F4"/>
				</linearGradient>
				<path fill="url(#SVGID_3_)" d="M16.29,17.924c1.561-0.284,3.724-0.496,6.666-0.496c3.191,0,5.531,0.673,7.056,1.949
					c1.418,1.171,2.341,3.05,2.341,5.283c0,2.269-0.709,4.148-2.057,5.425c-1.737,1.738-4.467,2.553-7.552,2.553
					c-0.816,0-1.56-0.036-2.127-0.142v9.006H16.29V17.924z M20.616,29.057c0.532,0.142,1.241,0.178,2.127,0.178
					c3.262,0,5.248-1.596,5.248-4.396c0-2.659-1.844-4.077-4.858-4.077c-1.206,0-2.056,0.105-2.517,0.213V29.057z"/>
			</g>
		</g>
		<g display="inline">
			<g opacity="0.1">
				<path d="M33.698,38.82c0.993,0.604,2.872,1.241,4.433,1.241c1.913,0,2.765-0.78,2.765-1.915c0-1.17-0.708-1.773-2.836-2.518
					c-3.368-1.17-4.787-3.014-4.752-5.034c0-3.049,2.518-5.425,6.524-5.425c1.914,0,3.581,0.496,4.573,1.028l-0.85,3.085
					c-0.746-0.426-2.128-0.993-3.652-0.993c-1.561,0-2.411,0.745-2.411,1.809c0,1.099,0.815,1.63,3.014,2.41
					c3.12,1.136,4.574,2.731,4.609,5.283c0,3.12-2.447,5.425-7.021,5.425c-2.092,0-3.97-0.532-5.246-1.24L33.698,38.82z"/>
			</g>
			<g>
				<linearGradient id="SVGID_4_" gradientUnits="userSpaceOnUse" x1="16.1377" y1="32.8682" x2="44.9232" y2="32.8682">
					<stop  offset="0" style="stop-color:#95C8FD"/>
					<stop  offset="1" style="stop-color:#73B4F4"/>
				</linearGradient>
				<path fill="url(#SVGID_4_)" d="M33.698,37.495c0.993,0.604,2.872,1.241,4.433,1.241c1.913,0,2.765-0.78,2.765-1.915
					c0-1.17-0.708-1.773-2.836-2.518c-3.368-1.17-4.787-3.014-4.752-5.034c0-3.049,2.518-5.425,6.524-5.425
					c1.914,0,3.581,0.496,4.573,1.028l-0.85,3.085c-0.746-0.426-2.128-0.993-3.652-0.993c-1.561,0-2.411,0.745-2.411,1.809
					c0,1.099,0.815,1.63,3.014,2.41c3.12,1.136,4.574,2.731,4.609,5.283c0,3.12-2.447,5.425-7.021,5.425
					c-2.092,0-3.97-0.532-5.246-1.24L33.698,37.495z"/>
			</g>
		</g>
	</g>
	<g display="none">
		<linearGradient id="SVGID_5_" gradientUnits="userSpaceOnUse" x1="3.7817" y1="3.9019" x2="56.341" y2="56.4612">
			<stop  offset="0" style="stop-color:#5E4421"/>
			<stop  offset="1" style="stop-color:#373100"/>
		</linearGradient>
		<rect x="3.388" y="4.295" display="inline" opacity="0.95" fill="url(#SVGID_5_)" width="53.346" height="51.772"/>
		<g display="inline">
			
				<image overflow="visible" opacity="0.4" width="275" height="269" xlink:href="44B24520A26BC497.png"  transform="matrix(0.24 0 0 0.24 -2.8867 -0.896)">
			</image>
			<g>
				<g>
					<linearGradient id="SVGID_6_" gradientUnits="userSpaceOnUse" x1="1.0898" y1="1.7549" x2="58.9102" y2="58.2447">
						<stop  offset="0" style="stop-color:#FDC45E"/>
						<stop  offset="1" style="stop-color:#FC9C0D"/>
					</linearGradient>
					<path fill="url(#SVGID_6_)" d="M1.089,1.755v56.49H58.91V1.755H1.089z M54.314,53.77H5.807V6.351h48.508V53.77z"/>
				</g>
			</g>
		</g>
		<g display="inline">
			<g opacity="0.1">
				<path d="M22.158,36.118l-2.057,6.773h-4.503l7.659-23.901h5.568l7.766,23.901h-4.68l-2.164-6.773H22.158z M29.002,32.82
					l-1.88-5.886c-0.46-1.454-0.851-3.085-1.205-4.468h-0.07c-0.355,1.383-0.709,3.05-1.136,4.468l-1.844,5.886H29.002z"/>
			</g>
			<g>
				<linearGradient id="SVGID_7_" gradientUnits="userSpaceOnUse" x1="15.1821" y1="29.6157" x2="42.5795" y2="29.6157">
					<stop  offset="0" style="stop-color:#FDC45E"/>
					<stop  offset="1" style="stop-color:#FC9C0D"/>
				</linearGradient>
				<path fill="url(#SVGID_7_)" d="M22.158,34.793l-2.057,6.773h-4.503l7.659-23.901h5.568l7.766,23.901h-4.68l-2.164-6.773H22.158z
					 M29.002,31.495l-1.88-5.886c-0.46-1.454-0.851-3.085-1.205-4.468h-0.07c-0.355,1.383-0.709,3.05-1.136,4.468l-1.844,5.886
					H29.002z"/>
			</g>
		</g>
		<g display="inline">
			<g opacity="0.1">
				<path d="M42.938,20.8c0,1.312-0.959,2.34-2.482,2.34c-1.455,0-2.412-1.028-2.412-2.34c0-1.348,0.992-2.377,2.447-2.377
					C41.979,18.423,42.9,19.452,42.938,20.8z M38.291,42.892v-17.27h4.396v17.27H38.291z"/>
			</g>
			<g>
				<linearGradient id="SVGID_8_" gradientUnits="userSpaceOnUse" x1="15.1768" y1="29.332" x2="42.5816" y2="29.332">
					<stop  offset="0" style="stop-color:#FDC45E"/>
					<stop  offset="1" style="stop-color:#FC9C0D"/>
				</linearGradient>
				<path fill="url(#SVGID_8_)" d="M42.938,19.475c0,1.312-0.959,2.34-2.482,2.34c-1.455,0-2.412-1.028-2.412-2.34
					c0-1.348,0.992-2.377,2.447-2.377C41.979,17.098,42.9,18.127,42.938,19.475z M38.291,41.566v-17.27h4.396v17.27H38.291z"/>
			</g>
		</g>
	</g>
	<g display="none">
		<linearGradient id="SVGID_9_" gradientUnits="userSpaceOnUse" x1="3.4478" y1="4.353" x2="56.6725" y2="56.0087">
			<stop  offset="0" style="stop-color:#2C344B"/>
			<stop  offset="1" style="stop-color:#302F41"/>
		</linearGradient>
		<rect x="3.448" y="4.354" display="inline" fill="url(#SVGID_9_)" width="53.224" height="51.655"/>
		<g display="inline">
			
				<image overflow="visible" opacity="0.4" width="274" height="268" xlink:href="44B24520A26BC492.png"  transform="matrix(0.24 0 0 0.24 -2.8208 -0.8315)">
			</image>
			<g>
				<g>
					<linearGradient id="SVGID_10_" gradientUnits="userSpaceOnUse" x1="1.1553" y1="1.8193" x2="58.8443" y2="58.1808">
						<stop  offset="0" style="stop-color:#C1E1EC"/>
						<stop  offset="1" style="stop-color:#99C1CD"/>
					</linearGradient>
					<path fill="url(#SVGID_10_)" d="M1.155,1.819v56.361h57.689V1.819H1.155z M54.259,53.714H5.861V6.405h48.397V53.714z"/>
				</g>
			</g>
		</g>
		<g display="inline">
			
				<image overflow="visible" opacity="0.1" width="94" height="135" xlink:href="44B24520A26BC493.png"  transform="matrix(0.24 0 0 0.24 14.7397 13.2573)">
			</image>
			<g>
				<linearGradient id="SVGID_11_" gradientUnits="userSpaceOnUse" x1="17.4478" y1="29.415" x2="44.6425" y2="29.415">
					<stop  offset="0" style="stop-color:#C1E1EC"/>
					<stop  offset="1" style="stop-color:#99C1CD"/>
				</linearGradient>
				<path fill="url(#SVGID_11_)" d="M17.391,17.233h4.446v20.639h10.012v3.725H17.391V17.233z"/>
			</g>
		</g>
		<g display="inline">
			
				<image overflow="visible" opacity="0.1" width="75" height="109" xlink:href="44B24520A26BC49D.png"  transform="matrix(0.24 0 0 0.24 32.2354 19.6187)">
			</image>
			<g>
				<linearGradient id="SVGID_12_" gradientUnits="userSpaceOnUse" x1="17.4473" y1="32.5957" x2="44.6429" y2="32.5957">
					<stop  offset="0" style="stop-color:#C1E1EC"/>
					<stop  offset="1" style="stop-color:#99C1CD"/>
				</linearGradient>
				<path fill="url(#SVGID_12_)" d="M35.03,29.668c0-2.385-0.035-4.084-0.145-5.675h3.867l0.145,3.362h0.146
					c0.867-2.495,2.928-3.761,4.808-3.761c0.434,0,0.687,0.037,1.048,0.109v4.192c-0.361-0.072-0.76-0.145-1.302-0.145
					c-2.132,0-3.578,1.374-3.976,3.361c-0.071,0.398-0.145,0.867-0.145,1.374v9.109H35.03V29.668z"/>
			</g>
		</g>
	</g>
</g>
<g id="Dev_skills">
	<path id="Angular" fill="#C4473A" d="M25.42,30h9.575l-5.09-10.643L25.42,30z M29.922,4.101l-24.37,8.577l3.851,31.929
		l20.546,11.293L50.6,44.454l3.849-31.929L29.922,4.101z M23.438,34.523l-2.988,7.475l-5.585,0.024L29.921,8.677l-0.029-0.063
		h-0.026V8.559l0.026,0.055h0.058L30,8.501v0.113h-0.051l-0.028,0.063l15.706,33.484l-5.378-0.118l-3.307-7.641l-7.062,0.032"/>
	<path id="bootstrap" display="none" fill="#5B4282" d="M35.031,30.455c-0.963-0.316-2.348-0.249-4.157-0.249h-7.266v9.483h7.771
		c1.213,0,2.066-0.129,2.557-0.22c0.867-0.156,1.59-0.455,2.172-0.817c0.582-0.361,1.059-0.909,1.434-1.6
		c0.375-0.692,0.562-1.5,0.562-2.405c0-1.059-0.271-1.871-0.814-2.653C36.748,31.213,35.994,30.771,35.031,30.455z M34.033,26.119
		c0.957-0.283,1.676-0.78,2.16-1.438s0.727-1.497,0.727-2.492c0-0.942-0.225-1.779-0.678-2.496
		c-0.451-0.718-1.098-0.996-1.938-1.261s-2.281-0.184-4.321-0.184h-6.375v8.247h6.839C32.115,26.495,33.309,26.339,34.033,26.119z
		 M55.771,11.084c0-3.787-3.068-6.855-6.855-6.855H11.083c-3.787,0-6.855,3.068-6.855,6.855v37.832c0,3.787,3.069,6.855,6.855,6.855
		h37.833c3.787,0,6.855-3.068,6.855-6.855V11.084z M41.156,38.348c-0.562,1.143-1.258,2.026-2.084,2.646
		c-0.826,0.618-1.865,1.146-3.111,1.462c-1.246,0.317-2.773,0.532-4.582,0.532H19.897V14.537h11.308c2.17,0,3.91,0.251,5.221,0.825
		c1.312,0.575,2.34,1.442,3.082,2.637c0.744,1.196,1.115,2.437,1.115,3.74c0,1.215-0.33,2.354-0.99,3.426
		c-0.658,1.074-1.652,1.937-2.982,2.595c1.717,0.505,3.039,1.362,3.963,2.577c0.924,1.214,1.385,2.647,1.385,4.302
		C41.998,35.969,41.717,37.205,41.156,38.348z"/>
	<path id="git" display="none" fill="#F34F29" d="M55.085,27.678L32.327,4.921c-1.31-1.311-3.436-1.311-4.748,0l-4.725,4.727
		l5.995,5.995c1.394-0.471,2.99-0.155,4.101,0.955c1.115,1.118,1.429,2.729,0.947,4.126l5.777,5.778
		c1.396-0.481,3.011-0.17,4.126,0.948c1.561,1.559,1.561,4.087,0,5.648s-4.088,1.561-5.649,0c-1.175-1.175-1.464-2.898-0.87-4.343
		l-5.387-5.389l-0.001,14.179c0.381,0.188,0.739,0.439,1.057,0.755c1.56,1.56,1.56,4.087,0,5.65c-1.561,1.56-4.089,1.56-5.648,0
		c-1.56-1.563-1.688-4.091-0.128-5.65c0.386-0.386,0.766-0.677,1.179-0.871V23.118c-0.413-0.195-0.792-0.484-1.179-0.872
		c-1.181-1.181-1.402-2.915-0.796-4.367l-5.876-5.91L4.911,27.573C3.6,28.885,3.608,31.01,4.919,32.321l22.762,22.758
		c1.31,1.311,3.438,1.311,4.75,0l22.651-22.652C56.395,31.116,56.396,28.989,55.085,27.678z"/>
	<g id="github" display="none">
		<path display="inline" fill="#181616" d="M30,4.308c-14.547,0-26.342,11.793-26.342,26.342c0,11.639,7.547,21.513,18.015,24.997
			c1.316,0.244,1.799-0.572,1.799-1.269c0-0.627-0.024-2.702-0.036-4.903c-7.328,1.594-8.875-3.108-8.875-3.108
			c-1.198-3.044-2.925-3.854-2.925-3.854c-2.39-1.636,0.18-1.601,0.18-1.601c2.645,0.186,4.038,2.713,4.038,2.713
			c2.35,4.026,6.163,2.863,7.666,2.19c0.237-1.703,0.919-2.864,1.673-3.522c-5.851-0.665-12.002-2.924-12.002-13.019
			c0-2.875,1.03-5.225,2.715-7.07c-0.274-0.664-1.176-3.343,0.255-6.971c0,0,2.211-0.708,7.246,2.699
			c2.102-0.583,4.355-0.877,6.595-0.887c2.237,0.01,4.492,0.303,6.598,0.887c5.029-3.408,7.238-2.701,7.238-2.701
			c1.434,3.627,0.531,6.309,0.258,6.971c1.689,1.846,2.711,4.195,2.711,7.071c0,10.119-6.162,12.345-12.027,12.998
			c0.943,0.817,1.787,2.421,1.787,4.878c0,3.524-0.031,6.362-0.031,7.229c0,0.702,0.475,1.523,1.809,1.266
			c10.461-3.488,18-13.359,18-24.994C56.342,16.102,44.547,4.308,30,4.308L30,4.308z"/>
		<path display="inline" fill="#181616" d="M13.635,42.13c-0.058,0.131-0.264,0.169-0.452,0.08
			c-0.192-0.086-0.299-0.264-0.237-0.395c0.057-0.137,0.263-0.173,0.454-0.084C13.592,41.818,13.701,41.999,13.635,42.13
			L13.635,42.13z M14.702,43.32c-0.125,0.116-0.371,0.062-0.538-0.124c-0.172-0.182-0.205-0.429-0.077-0.547
			c0.13-0.114,0.368-0.06,0.541,0.124C14.8,42.958,14.834,43.202,14.702,43.32L14.702,43.32z M15.741,44.836
			c-0.162,0.112-0.425,0.007-0.589-0.228c-0.162-0.234-0.162-0.516,0.004-0.627c0.163-0.112,0.423-0.011,0.589,0.22
			C15.905,44.439,15.905,44.722,15.741,44.836L15.741,44.836z M17.163,46.303c-0.144,0.158-0.452,0.116-0.677-0.102
			c-0.23-0.211-0.294-0.515-0.149-0.673c0.146-0.16,0.456-0.114,0.682,0.1c0.23,0.213,0.3,0.515,0.146,0.673L17.163,46.303z
			 M19.126,47.153c-0.064,0.205-0.36,0.3-0.659,0.213c-0.297-0.091-0.493-0.333-0.432-0.542c0.061-0.207,0.359-0.306,0.66-0.211
			C18.993,46.702,19.188,46.942,19.126,47.153z M21.282,47.312c0.008,0.216-0.245,0.396-0.558,0.399
			c-0.315,0.008-0.57-0.169-0.574-0.381c0-0.221,0.248-0.398,0.563-0.404c0.312-0.005,0.569,0.169,0.569,0.384L21.282,47.312z
			 M23.288,46.97c0.038,0.211-0.18,0.429-0.491,0.487c-0.306,0.057-0.589-0.074-0.628-0.285c-0.038-0.217,0.184-0.435,0.489-0.491
			C22.97,46.626,23.249,46.755,23.288,46.97L23.288,46.97z"/>
	</g>
	<path id="html" display="none" fill="#E44D26" d="M6.882,3.82l4.208,47.145l18.883,5.215l18.935-5.209L53.118,3.82H6.882z
		 M44.367,14.981l-0.265,3.018l-0.116,1.382H21.837l0.528,5.889h21.096l-0.143,1.459l-1.359,15.19l-0.1,0.955L30,46.135v0.002
		l-0.014,0.006l-11.852-3.121l-0.804-8.92h5.81l0.412,4.594l6.43,1.715H30v-0.229l6.458-1.631l0.675-7.393H17.072l-1.423-16.032
		l-0.139-1.633h28.994L44.367,14.981z"/>
	<path id="javaScript" display="none" fill="#F0DB4F" d="M4.102,4.102v51.797h51.797V4.102H4.102z M31.5,48.237
		c-0.765,1.555-2.224,2.575-3.916,3.066c-2.599,0.598-5.084,0.258-6.933-0.853c-1.237-0.758-2.203-1.927-2.859-3.273l3.945-2.416
		c0.034,0.015,0.138,0.202,0.276,0.444c0.503,0.843,0.938,1.439,1.79,1.857c0.838,0.287,2.678,0.47,3.388-1.005
		c0.434-0.751,0.296-3.161,0.296-5.829c0-4.189,0.019-8.365,0.019-12.509h4.852c0,4.559,0.025,8.875,0,13.324
		C32.367,43.771,32.604,46.202,31.5,48.237z M51.627,46.867c-1.686,5.77-11.089,5.956-14.847,2.146
		c-0.794-0.897-1.292-1.365-1.765-2.401c1.996-1.15,1.996-1.15,3.94-2.273c1.055,1.622,2.03,2.516,3.786,2.88
		c2.382,0.291,4.778-0.527,4.24-3.059c-0.553-2.064-4.878-2.567-7.819-4.777c-2.989-2.006-3.689-6.884-1.233-9.669
		c0.818-1.03,2.214-1.8,3.678-2.17l1.528-0.197c2.936-0.06,4.769,0.715,6.115,2.219c0.375,0.38,0.681,0.789,1.252,1.677
		c-1.562,0.996-1.559,0.986-3.797,2.437c-0.479-1.031-1.272-1.677-2.11-1.958c-1.302-0.396-2.944,0.034-3.285,1.41
		c-0.117,0.424-0.093,0.818,0.095,1.519c0.527,1.203,2.298,1.727,3.885,2.455c4.572,1.854,6.116,3.841,6.495,6.208
		C52.15,45.35,51.697,46.67,51.627,46.867z"/>
	<path id="wordpress" display="none" fill="#494949" d="M30.039,55.948c14.273-0.022,25.827-11.632,25.827-25.954
		c0-14.089-11.501-25.692-25.241-25.938C16.195,3.799,4.137,15.508,4.134,29.707C4.129,44.314,15.632,55.969,30.039,55.948z
		 M29.997,5.313C43.7,5.308,54.619,16.442,54.614,30.415c-0.004,13.191-11.212,24.228-24.607,24.23
		C16.36,54.648,5.386,43.584,5.386,29.823C5.387,16.417,16.533,5.317,29.997,5.313z M19.655,18.333
		c0.224,0.746-0.403,1.006-1.07,1.059c-0.701,0.054-1.403,0.107-2.217,0.169c2.688,8.01,5.337,15.901,8.047,23.975
		c0.193-0.315,0.272-0.405,0.308-0.509c1.488-4.448,2.985-8.894,4.436-13.355c0.132-0.407,0.066-0.945-0.079-1.364
		c-0.768-2.215-1.688-4.383-2.36-6.625c-0.46-1.535-1.07-2.528-2.885-2.35c-0.309,0.03-0.687-0.634-1.032-0.978
		c0.418-0.25,0.833-0.71,1.256-0.716c3.694-0.057,7.39-0.057,11.083,0.003c0.425,0.007,0.84,0.479,1.258,0.735
		c-0.365,0.335-0.682,0.836-1.11,0.967c-0.687,0.207-1.45,0.168-2.272,0.241c2.691,8.006,5.326,15.848,8.058,23.969
		c1.22-4.054,2.356-7.777,3.46-11.51c0.985-3.331,0.399-6.443-1.383-9.378c-0.536-0.881-1.194-1.739-1.498-2.701
		c-0.344-1.095-0.631-2.341-0.447-3.439c0.31-1.861,1.737-2.785,3.67-2.962c-10.574-9.813-27.19-6.301-33.313,4.362
		c2.357-0.108,4.607-0.252,6.859-0.283C18.849,17.64,19.555,17.999,19.655,18.333L19.655,18.333z M23.868,50.802
		c-0.049,0.145-0.052,0.304-0.091,0.542c4.558,1.265,9.026,1.172,13.6-0.368l-6.987-19.14
		C28.153,38.337,26.008,44.568,23.868,50.802z M20.346,49.936L9.819,21.057C5.069,30.334,8.683,44.489,20.346,49.936z M52.173,31.38
		c0.334-4.387-1.18-10.46-2.486-11.295c-0.146,1.613-0.043,3.408-0.507,5.044c-1.09,3.854-2.422,7.641-3.706,11.438
		c-1.395,4.127-2.845,8.236-4.271,12.354C47.903,44.949,51.587,39.086,52.173,31.38z"/>
</g>
</svg>
