<?xml version="1.0" encoding="utf-8"?>
<!-- Generator: Adobe Illustrator 16.0.4, SVG Export Plug-In . SVG Version: 6.00 Build 0)  -->
<!DOCTYPE svg PUBLIC "-//W3C//DTD SVG 1.1//EN" "http://www.w3.org/Graphics/SVG/1.1/DTD/svg11.dtd">
<svg version="1.1" xmlns="http://www.w3.org/2000/svg" xmlns:xlink="http://www.w3.org/1999/xlink" x="0px" y="0px" width="60px"
	 height="60px" viewBox="0 0 60 60" enable-background="new 0 0 60 60" xml:space="preserve">
<g id="creative_skills">
	<g display="none">
		<linearGradient id="SVGID_1_" gradientUnits="userSpaceOnUse" x1="3.7852" y1="3.9062" x2="56.3362" y2="56.4573">
			<stop  offset="0" style="stop-color:#32297C"/>
			<stop  offset="1" style="stop-color:#282761"/>
		</linearGradient>
		<rect x="3.392" y="4.299" display="inline" opacity="0.95" fill="url(#SVGID_1_)" width="53.338" height="51.765"/>
		<g display="inline">
			
				<image overflow="visible" opacity="0.4" width="275" height="269" xlink:href="BCA3BAB92BBF7251.png"  transform="matrix(0.24 0 0 0.24 -2.8823 -0.8921)">
			</image>
			<g>
				<g>
					<linearGradient id="SVGID_2_" gradientUnits="userSpaceOnUse" x1="1.0938" y1="1.7593" x2="58.9064" y2="58.2416">
						<stop  offset="0" style="stop-color:#95C8FD"/>
						<stop  offset="1" style="stop-color:#73B4F4"/>
					</linearGradient>
					<path fill="url(#SVGID_2_)" d="M1.094,1.759v56.482h57.812V1.759H1.094z M54.312,53.767H5.811V6.354h48.501V53.767z"/>
				</g>
			</g>
		</g>
		<g display="inline">
			<g opacity="0.1">
				<path d="M16.29,19.249c1.561-0.284,3.724-0.496,6.666-0.496c3.191,0,5.531,0.673,7.056,1.949
					c1.418,1.171,2.341,3.05,2.341,5.283c0,2.269-0.709,4.148-2.057,5.425c-1.737,1.738-4.467,2.553-7.552,2.553
					c-0.816,0-1.56-0.036-2.127-0.142v9.006H16.29V19.249z M20.616,30.382c0.532,0.142,1.241,0.178,2.127,0.178
					c3.262,0,5.248-1.596,5.248-4.396c0-2.659-1.844-4.077-4.858-4.077c-1.206,0-2.056,0.105-2.517,0.213V30.382z"/>
			</g>
			<g>
				<linearGradient id="SVGID_3_" gradientUnits="userSpaceOnUse" x1="16.1367" y1="29.4648" x2="44.9234" y2="29.4648">
					<stop  offset="0" style="stop-color:#95C8FD"/>
					<stop  offset="1" style="stop-color:#73B4F4"/>
				</linearGradient>
				<path fill="url(#SVGID_3_)" d="M16.29,17.924c1.561-0.284,3.724-0.496,6.666-0.496c3.191,0,5.531,0.673,7.056,1.949
					c1.418,1.171,2.341,3.05,2.341,5.283c0,2.269-0.709,4.148-2.057,5.425c-1.737,1.738-4.467,2.553-7.552,2.553
					c-0.816,0-1.56-0.036-2.127-0.142v9.006H16.29V17.924z M20.616,29.057c0.532,0.142,1.241,0.178,2.127,0.178
					c3.262,0,5.248-1.596,5.248-4.396c0-2.659-1.844-4.077-4.858-4.077c-1.206,0-2.056,0.105-2.517,0.213V29.057z"/>
			</g>
		</g>
		<g display="inline">
			<g opacity="0.1">
				<path d="M33.698,38.82c0.993,0.604,2.872,1.241,4.433,1.241c1.913,0,2.765-0.78,2.765-1.915c0-1.17-0.708-1.773-2.836-2.518
					c-3.368-1.17-4.787-3.014-4.752-5.034c0-3.049,2.518-5.425,6.524-5.425c1.914,0,3.581,0.496,4.573,1.028l-0.85,3.085
					c-0.746-0.426-2.128-0.993-3.652-0.993c-1.561,0-2.411,0.745-2.411,1.809c0,1.099,0.815,1.63,3.014,2.41
					c3.12,1.136,4.574,2.731,4.609,5.283c0,3.12-2.447,5.425-7.021,5.425c-2.092,0-3.97-0.532-5.246-1.24L33.698,38.82z"/>
			</g>
			<g>
				<linearGradient id="SVGID_4_" gradientUnits="userSpaceOnUse" x1="16.1377" y1="32.8682" x2="44.9232" y2="32.8682">
					<stop  offset="0" style="stop-color:#95C8FD"/>
					<stop  offset="1" style="stop-color:#73B4F4"/>
				</linearGradient>
				<path fill="url(#SVGID_4_)" d="M33.698,37.495c0.993,0.604,2.872,1.241,4.433,1.241c1.913,0,2.765-0.78,2.765-1.915
					c0-1.17-0.708-1.773-2.836-2.518c-3.368-1.17-4.787-3.014-4.752-5.034c0-3.049,2.518-5.425,6.524-5.425
					c1.914,0,3.581,0.496,4.573,1.028l-0.85,3.085c-0.746-0.426-2.128-0.993-3.652-0.993c-1.561,0-2.411,0.745-2.411,1.809
					c0,1.099,0.815,1.63,3.014,2.41c3.12,1.136,4.574,2.731,4.609,5.283c0,3.12-2.447,5.425-7.021,5.425
					c-2.092,0-3.97-0.532-5.246-1.24L33.698,37.495z"/>
			</g>
		</g>
	</g>
	<g display="none">
		<linearGradient id="SVGID_5_" gradientUnits="userSpaceOnUse" x1="3.7817" y1="3.9019" x2="56.341" y2="56.4612">
			<stop  offset="0" style="stop-color:#5E4421"/>
			<stop  offset="1" style="stop-color:#373100"/>
		</linearGradient>
		<rect x="3.388" y="4.295" display="inline" opacity="0.95" fill="url(#SVGID_5_)" width="53.346" height="51.772"/>
		<g display="inline">
			
				<image overflow="visible" opacity="0.4" width="275" height="269" xlink:href="BCA3BAB92BBF7253.png"  transform="matrix(0.24 0 0 0.24 -2.8867 -0.896)">
			</image>
			<g>
				<g>
					<linearGradient id="SVGID_6_" gradientUnits="userSpaceOnUse" x1="1.0898" y1="1.7549" x2="58.9102" y2="58.2447">
						<stop  offset="0" style="stop-color:#FDC45E"/>
						<stop  offset="1" style="stop-color:#FC9C0D"/>
					</linearGradient>
					<path fill="url(#SVGID_6_)" d="M1.089,1.755v56.49H58.91V1.755H1.089z M54.314,53.77H5.807V6.351h48.508V53.77z"/>
				</g>
			</g>
		</g>
		<g display="inline">
			<g opacity="0.1">
				<path d="M22.158,36.118l-2.057,6.773h-4.503l7.659-23.901h5.568l7.766,23.901h-4.68l-2.164-6.773H22.158z M29.002,32.82
					l-1.88-5.886c-0.46-1.454-0.851-3.085-1.205-4.468h-0.07c-0.355,1.383-0.709,3.05-1.136,4.468l-1.844,5.886H29.002z"/>
			</g>
			<g>
				<linearGradient id="SVGID_7_" gradientUnits="userSpaceOnUse" x1="15.1821" y1="29.6157" x2="42.5795" y2="29.6157">
					<stop  offset="0" style="stop-color:#FDC45E"/>
					<stop  offset="1" style="stop-color:#FC9C0D"/>
				</linearGradient>
				<path fill="url(#SVGID_7_)" d="M22.158,34.793l-2.057,6.773h-4.503l7.659-23.901h5.568l7.766,23.901h-4.68l-2.164-6.773H22.158z
					 M29.002,31.495l-1.88-5.886c-0.46-1.454-0.851-3.085-1.205-4.468h-0.07c-0.355,1.383-0.709,3.05-1.136,4.468l-1.844,5.886
					H29.002z"/>
			</g>
		</g>
		<g display="inline">
			<g opacity="0.1">
				<path d="M42.938,20.8c0,1.312-0.959,2.34-2.482,2.34c-1.455,0-2.412-1.028-2.412-2.34c0-1.348,0.992-2.377,2.447-2.377
					C41.979,18.423,42.9,19.452,42.938,20.8z M38.291,42.892v-17.27h4.396v17.27H38.291z"/>
			</g>
			<g>
				<linearGradient id="SVGID_8_" gradientUnits="userSpaceOnUse" x1="15.1768" y1="29.332" x2="42.5816" y2="29.332">
					<stop  offset="0" style="stop-color:#FDC45E"/>
					<stop  offset="1" style="stop-color:#FC9C0D"/>
				</linearGradient>
				<path fill="url(#SVGID_8_)" d="M42.938,19.475c0,1.312-0.959,2.34-2.482,2.34c-1.455,0-2.412-1.028-2.412-2.34
					c0-1.348,0.992-2.377,2.447-2.377C41.979,17.098,42.9,18.127,42.938,19.475z M38.291,41.566v-17.27h4.396v17.27H38.291z"/>
			</g>
		</g>
	</g>
	<g>
		<linearGradient id="SVGID_9_" gradientUnits="userSpaceOnUse" x1="3.4478" y1="4.353" x2="56.6725" y2="56.0087">
			<stop  offset="0" style="stop-color:#2C344B"/>
			<stop  offset="1" style="stop-color:#302F41"/>
		</linearGradient>
		<rect x="3.448" y="4.354" fill="url(#SVGID_9_)" width="53.224" height="51.655"/>
		<g>
			
				<image overflow="visible" opacity="0.4" width="274" height="268" xlink:href="BCA3BAB92BBF7256.png"  transform="matrix(0.24 0 0 0.24 -2.8208 -0.8315)">
			</image>
			<g>
				<g>
					<linearGradient id="SVGID_10_" gradientUnits="userSpaceOnUse" x1="1.1553" y1="1.8193" x2="58.8443" y2="58.1808">
						<stop  offset="0" style="stop-color:#C1E1EC"/>
						<stop  offset="1" style="stop-color:#99C1CD"/>
					</linearGradient>
					<path fill="url(#SVGID_10_)" d="M1.155,1.819v56.361h57.689V1.819H1.155z M54.259,53.714H5.861V6.405h48.397V53.714z"/>
				</g>
			</g>
		</g>
		<g>
			
				<image overflow="visible" opacity="0.1" width="94" height="135" xlink:href="BCA3BAB92BBF7257.png"  transform="matrix(0.24 0 0 0.24 14.7397 13.2573)">
			</image>
			<g>
				<linearGradient id="SVGID_11_" gradientUnits="userSpaceOnUse" x1="17.4478" y1="29.415" x2="44.6425" y2="29.415">
					<stop  offset="0" style="stop-color:#C1E1EC"/>
					<stop  offset="1" style="stop-color:#99C1CD"/>
				</linearGradient>
				<path fill="url(#SVGID_11_)" d="M17.391,17.233h4.446v20.639h10.012v3.725H17.391V17.233z"/>
			</g>
		</g>
		<g>
			
				<image overflow="visible" opacity="0.1" width="75" height="109" xlink:href="BCA3BAB92BBF7252.png"  transform="matrix(0.24 0 0 0.24 32.2354 19.6187)">
			</image>
			<g>
				<linearGradient id="SVGID_12_" gradientUnits="userSpaceOnUse" x1="17.4473" y1="32.5957" x2="44.6429" y2="32.5957">
					<stop  offset="0" style="stop-color:#C1E1EC"/>
					<stop  offset="1" style="stop-color:#99C1CD"/>
				</linearGradient>
				<path fill="url(#SVGID_12_)" d="M35.03,29.668c0-2.385-0.035-4.084-0.145-5.675h3.867l0.145,3.362h0.146
					c0.867-2.495,2.928-3.761,4.808-3.761c0.434,0,0.687,0.037,1.048,0.109v4.192c-0.361-0.072-0.76-0.145-1.302-0.145
					c-2.132,0-3.578,1.374-3.976,3.361c-0.071,0.398-0.145,0.867-0.145,1.374v9.109H35.03V29.668z"/>
			</g>
		</g>
	</g>
</g>
<g id="Dev_skills">
</g>
</svg>
