<?xml version="1.0" encoding="utf-8"?>
<!-- Generator: Adobe Illustrator 16.0.4, SVG Export Plug-In . SVG Version: 6.00 Build 0)  -->
<!DOCTYPE svg PUBLIC "-//W3C//DTD SVG 1.1//EN" "http://www.w3.org/Graphics/SVG/1.1/DTD/svg11.dtd">
<svg version="1.1" xmlns="http://www.w3.org/2000/svg" xmlns:xlink="http://www.w3.org/1999/xlink" x="0px" y="0px" width="120px"
	 height="120px" viewBox="0 0 120 120" enable-background="new 0 0 120 120" xml:space="preserve">
<g id="Services" display="none">
	<g id="photos">
		<path display="inline" fill="#1976D2" d="M111.27,22.708H8.734c-1.913,0-3.466,1.553-3.466,3.466v67.652
			c0,1.914,1.553,3.466,3.466,3.466h102.531c1.911,0,3.466-1.552,3.466-3.466V26.174C114.735,24.261,113.181,22.708,111.27,22.708z
			 M107.804,29.64v52.632c-5.391-5.417-14.447-8.983-24.694-8.983c-5.28,0-10.235,0.952-14.548,2.613
			C56.844,65.521,35.623,58.926,12.204,58.329V29.64H107.804z M63.876,78.125c-5.092,2.927-8.567,6.878-9.954,11.31
			c-0.031,0.101-0.077,0.198-0.104,0.296c-0.059,0.208-0.104,0.419-0.156,0.63H12.2V61.793c21.797,0.562,41.528,6.396,52.865,15.643
			c-0.274,0.143-0.517,0.302-0.78,0.451C64.149,77.967,64.011,78.046,63.876,78.125z M57.284,90.36
			c0.059-0.177,0.093-0.357,0.159-0.53c0.059-0.155,0.122-0.309,0.184-0.464c0.239-0.565,0.513-1.119,0.843-1.665
			c0.031-0.054,0.059-0.106,0.094-0.162c2.014-3.244,5.57-6.072,10.321-8.058c0.027-0.012,0.042-0.038,0.068-0.053
			c4.098-1.688,8.946-2.683,14.158-2.683c11.285,0,20.914,4.604,24.693,11.046v2.562H57.284V90.36z"/>
		<path display="inline" fill="#1976D2" d="M83.109,53.356c4.774,0,8.664-3.889,8.664-8.665c0-4.775-3.89-8.665-8.664-8.665
			c-4.776,0-8.665,3.89-8.665,8.665C74.444,49.468,78.329,53.356,83.109,53.356z M83.109,39.492c2.864,0,5.198,2.333,5.198,5.199
			s-2.334,5.198-5.198,5.198c-2.867,0-5.199-2.332-5.199-5.198S80.239,39.492,83.109,39.492z"/>
	</g>
	<g id="developmeent">
		<path display="inline" fill="#1976D2" d="M111.15,13.298H8.854c-1.909,0-3.458,1.546-3.458,3.458v67.498
			c0,1.912,1.549,3.457,3.458,3.457h37.099v15.533h-4.862c-0.955,0-1.729,0.773-1.729,1.729s0.774,1.729,1.729,1.729h6.591h24.637
			h6.591c0.955,0,1.729-0.773,1.729-1.729s-0.774-1.729-1.729-1.729h-4.862V87.711h37.1c1.909,0,3.458-1.545,3.458-3.457V16.756
			C114.608,14.844,113.06,13.298,111.15,13.298z M107.692,20.214v44.927H12.311V20.214H107.692z M70.589,103.244H49.411v-6.699
			h7.313c0.955,0,1.729-0.773,1.729-1.729s-0.774-1.729-1.729-1.729h-7.313v-5.381h21.178V103.244z M12.311,80.795V68.604h95.377
			v12.191H12.311z"/>
		<path display="inline" fill="#1976D2" d="M63.279,73.232h-6.556c-0.954,0-1.729,0.775-1.729,1.73c0,0.953,0.775,1.729,1.729,1.729
			h6.556c0.954,0,1.729-0.775,1.729-1.729C65.008,74.008,64.233,73.232,63.279,73.232z"/>
		<path fill="#1976D2" d="M41.091,52.234c0.443,0,0.885-0.17,1.224-0.506l14.188-14.187c0.674-0.674,0.674-1.771,0-2.445
			c-0.674-0.673-1.77-0.673-2.445,0L39.87,49.281c-0.674,0.674-0.674,1.771,0,2.444C40.206,52.064,40.648,52.234,41.091,52.234z"/>
		<path fill="#1976D2" d="M63.279,41.158c0.442,0,0.886-0.169,1.225-0.505l3.112-3.108c0.673-0.674,0.673-1.77,0-2.445
			c-0.674-0.673-1.771-0.673-2.444,0l-3.112,3.109c-0.675,0.674-0.675,1.77,0,2.444C62.395,40.989,62.838,41.158,63.279,41.158z"/>
		<path fill="#1976D2" d="M50.98,51.725c0.339,0.339,0.782,0.506,1.224,0.506s0.885-0.17,1.224-0.506l7.095-7.096
			c0.674-0.674,0.674-1.77,0-2.445c-0.673-0.673-1.77-0.673-2.444,0l-7.099,7.096C50.306,49.958,50.306,51.051,50.98,51.725z"/>
	</g>
</g>
<g id="Dev">
	<g id="Page-1" display="none">
		<g id="Apple-Icons" transform="translate(-120.000000, -446.000000)" display="inline">
			<g id="_x31_28px" transform="translate(120.000000, 224.000000)">
				<path id="Cinema-Display" fill="#1976D2" d="M59.025,306.405c-0.45,0-0.817,0.366-0.817,0.817s0.367,0.817,0.817,0.817
					s0.817-0.366,0.817-0.817S59.476,306.405,59.025,306.405L59.025,306.405z M105.602,302.218c0,1.408-1.145,2.553-2.553,2.553
					H15.001c-1.407,0-2.552-1.145-2.552-2.553v-48.825c0-1.407,1.145-2.552,2.552-2.552h88.047c1.408,0,2.553,1.145,2.553,2.552
					V302.218z M103.049,250.024H15.001c-1.861,0-3.369,1.508-3.369,3.369v48.825c0,1.861,1.508,3.37,3.369,3.37h88.047
					c1.861,0,3.37-1.509,3.37-3.37v-48.825C106.419,251.532,104.91,250.024,103.049,250.024L103.049,250.024z M109.687,305.461
					c0,1.873-1.521,3.396-3.396,3.396H11.76c-1.873,0-3.396-1.523-3.396-3.396v-55.31c0-1.873,1.523-3.396,3.396-3.396h94.531
					c1.874,0,3.396,1.523,3.396,3.396V305.461z M71.562,323.564H46.488c2.832-5.629,3.549-11.649,3.549-13.072h17.977
					C68.014,311.915,68.73,317.938,71.562,323.564L71.562,323.564z M76.185,324.382v0.448c0,0.654-0.531,1.187-1.184,1.187h-31.95
					c-0.654,0-1.185-0.532-1.185-1.187v-0.448H76.185z M106.291,245.121H11.76c-2.767,0-5.03,2.264-5.03,5.03v55.31
					c0,2.767,2.264,5.031,5.03,5.031h37.46c0,1.403-0.727,7.422-3.651,13.072h-4.52v1.266c0,1.104,0.9,2.004,2.002,2.004h31.95
					c1.101,0,2.001-0.9,2.001-2.004v-1.266h-4.52c-2.925-5.65-3.651-11.669-3.651-13.072h37.46c2.768,0,5.03-2.265,5.03-5.031
					v-55.31C111.321,247.385,109.059,245.121,106.291,245.121L106.291,245.121z"/>
			</g>
		</g>
		<g display="inline">
			<path display="none" fill="#1976D2" d="M111.148,64.242L83.178,37.983c-0.643-0.601-1.485-0.937-2.367-0.937H21.232
				c-1.907,0-3.456,1.545-3.456,3.456v101.79c0,1.911,1.549,3.457,3.456,3.457h87.553c1.907,0,3.456-1.546,3.456-3.457V66.762
				C112.237,65.808,111.843,64.896,111.148,64.242z M82.538,46.869l19.351,18.169H82.538V46.869L82.538,46.869z M24.688,138.843
				V43.959h54.399v22.803c0,0.954,0.773,1.729,1.728,1.729h24.515v70.348H24.688V138.843z"/>
			<path fill="#1976D2" d="M46.401,44.442c-0.654-0.53-1.62-0.423-2.154,0.236l-6.896,8.604c-0.448,0.561-0.448,1.354,0,1.916
				l6.896,8.604c0.305,0.376,0.748,0.576,1.199,0.576c0.334,0,0.674-0.109,0.955-0.338c0.663-0.527,0.768-1.491,0.24-2.151
				l-6.131-7.644l6.131-7.645C47.168,45.938,47.064,44.969,46.401,44.442z"/>
			<path fill="#1976D2" d="M76.553,44.681c-0.524-0.66-1.493-0.766-2.155-0.236c-0.662,0.527-0.765,1.492-0.238,2.152l6.13,7.644
				l-6.13,7.645c-0.53,0.658-0.424,1.624,0.238,2.151c0.281,0.227,0.623,0.336,0.957,0.336c0.447,0,0.895-0.196,1.198-0.575
				l6.896-8.603c0.449-0.562,0.449-1.355,0-1.916L76.553,44.681z"/>
			<path fill="#1976D2" d="M68.273,39.088c-0.754-0.38-1.677-0.078-2.056,0.68l-14.37,28.544c-0.379,0.755-0.076,1.678,0.68,2.058
				c0.223,0.111,0.454,0.166,0.687,0.166c0.562,0,1.101-0.31,1.371-0.844l14.369-28.545C69.334,40.39,69.031,39.468,68.273,39.088z"
				/>
		</g>
	</g>
	<g id="Camera">
		<path fill="#1976D2" d="M60,41.904c-8.175,0-14.798,6.627-14.798,14.805c0,8.178,6.623,14.806,14.798,14.806
			c8.174,0,14.798-6.628,14.798-14.806C74.798,48.532,68.174,41.904,60,41.904z M60,69.047c-6.811,0-12.332-5.524-12.332-12.337
			c0-6.812,5.521-12.338,12.332-12.338c6.812,0,12.332,5.525,12.332,12.338C72.332,63.522,66.812,69.047,60,69.047z"/>
		<path fill="#1976D2" d="M89.597,34.501c-2.727,0-4.934,2.209-4.934,4.935c0,2.727,2.207,4.935,4.934,4.935
			c2.725,0,4.933-2.208,4.933-4.935C94.529,36.71,92.321,34.501,89.597,34.501z M89.597,41.904c-1.361,0-2.467-1.106-2.467-2.468
			c0-1.362,1.105-2.467,2.467-2.467c1.359,0,2.466,1.105,2.466,2.467C92.062,40.798,90.956,41.904,89.597,41.904z"/>
		<path fill="#1976D2" d="M60,34.501c-12.26,0-22.197,9.941-22.197,22.208c0,12.266,9.938,22.209,22.197,22.209
			s22.197-9.943,22.197-22.209C82.197,44.443,72.26,34.501,60,34.501z M60,76.45c-10.896,0-19.731-8.838-19.731-19.741
			c0-10.901,8.835-19.74,19.731-19.74c10.896,0,19.73,8.839,19.73,19.74C79.73,67.612,70.896,76.45,60,76.45z"/>
		<path fill="#1976D2" d="M94.529,29.566H77.265v-4.936c0-2.726-2.206-4.935-4.933-4.935H47.668c-2.727,0-4.933,2.209-4.933,4.935
			v4.936H25.471c-2.727,0-4.933,2.208-4.933,4.935v44.417c0,2.727,2.206,4.935,4.933,4.935h69.059c2.727,0,4.933-2.208,4.933-4.935
			V34.501C99.462,31.774,97.256,29.566,94.529,29.566z M96.995,76.45c0,2.729-2.207,4.936-4.933,4.936H27.938
			c-2.727,0-4.933-2.207-4.933-4.936V36.969c0-2.727,2.206-4.936,4.933-4.936h17.265v-2.467v-2.468c0-2.727,2.205-4.935,4.932-4.935
			h19.731c2.727,0,4.933,2.208,4.933,4.935v2.468v2.467h17.265c2.726,0,4.933,2.209,4.933,4.936V76.45z"/>
	</g>
	<g id="Page-1_1_" display="none">
		<g id="Apple-Icons_1_" transform="translate(-151.000000, -224.000000)" display="inline">
			<g id="_x31_28px_1_" transform="translate(120.000000, 224.000000)">
				<path id="iPhone" fill="#1976D2" d="M113.774,104.21c0,2.6-2.113,4.718-4.714,4.718H71.348c-2.599,0-4.715-2.118-4.715-4.718
					V16.216c0-2.6,2.116-4.714,4.715-4.714h37.713c2.601,0,4.714,2.114,4.714,4.714V104.21z M115.347,30.357V16.216
					c0-3.458-2.827-6.286-6.286-6.286H71.348c-3.456,0-6.287,2.828-6.287,6.286v6.285c-0.43,0-0.784,0.354-0.784,0.784v1.572
					c0,0.433,0.354,0.788,0.784,0.788v4.713c-0.43,0-0.784,0.354-0.784,0.786v4.713c0,0.432,0.354,0.786,0.784,0.786v1.571
					c-0.43,0-0.784,0.354-0.784,0.786v4.715c0,0.432,0.354,0.784,0.784,0.784v59.711c0,3.459,2.831,6.286,6.287,6.286h37.713
					c3.459,0,6.286-2.827,6.286-6.286V38.214c0.432,0,0.782-0.354,0.782-0.786v-6.284C116.129,30.711,115.778,30.357,115.347,30.357
					L115.347,30.357z M81.954,17.001c0.217,0,0.394-0.175,0.394-0.393c0-0.215-0.176-0.392-0.394-0.392
					c-0.216,0-0.392,0.176-0.392,0.392C81.562,16.826,81.737,17.001,81.954,17.001L81.954,17.001z M84.312,17.001h11.787
					c0.215,0,0.39-0.176,0.39-0.393c0-0.215-0.175-0.392-0.39-0.392H84.312c-0.216,0-0.393,0.177-0.393,0.392
					C83.919,16.825,84.095,17.001,84.312,17.001L84.312,17.001z M90.203,106.566c-1.298,0-2.356-1.057-2.356-2.356
					s1.058-2.356,2.356-2.356c1.3,0,2.358,1.057,2.358,2.356S91.503,106.566,90.203,106.566L90.203,106.566z M90.203,101.064
					c-1.734,0-3.142,1.408-3.142,3.146c0,1.733,1.408,3.142,3.142,3.142c1.737,0,3.145-1.408,3.145-3.142
					C93.348,102.473,91.94,101.064,90.203,101.064L90.203,101.064z M111.417,96.367c0,1.294-1.053,2.342-2.343,2.342H71.332
					c-1.291,0-2.34-1.048-2.34-2.342V24.843c0-1.292,1.05-2.342,2.34-2.342h37.743c1.29,0,2.343,1.05,2.343,2.342V96.367z
					 M109.074,21.715H71.332c-1.727,0-3.127,1.399-3.127,3.127v71.524c0,1.728,1.4,3.129,3.127,3.129h37.743
					c1.729,0,3.129-1.401,3.129-3.129V24.843C112.203,23.114,110.803,21.715,109.074,21.715L109.074,21.715z"/>
			</g>
		</g>
		<g id="UI_x2F_UX" display="inline">
			<path display="none" fill="#1976D2" d="M84.168,13.491H34.092c-1.65,0-2.984,1.334-2.984,2.985v87.05
				c0,1.648,1.334,2.982,2.984,2.982h50.072c1.652,0,2.986-1.334,2.986-2.982v-87.05C87.154,14.825,85.816,13.491,84.168,13.491z
				 M81.184,19.46v12.348H37.076V19.46H81.184z M81.184,34.793v50.985H37.076V34.793H81.184z M37.076,100.54V88.765H81.18v11.775
				H37.076z"/>
			<path display="none" fill="#1976D2" d="M46.571,67.508c0.292,0.292,0.674,0.436,1.056,0.436c0.383,0,0.765-0.147,1.057-0.436
				l12.902-12.9c0.583-0.582,0.583-1.527,0-2.11c-0.581-0.581-1.528-0.581-2.109,0L46.574,65.396
				C45.988,65.98,45.988,66.923,46.571,67.508z"/>
			<path display="none" fill="#1976D2" d="M67.803,57.87c0.383,0,0.766-0.147,1.057-0.437l2.83-2.826
				c0.582-0.582,0.582-1.527,0-2.11c-0.582-0.581-1.529-0.581-2.109,0l-2.829,2.826c-0.583,0.583-0.583,1.529,0,2.11
				C67.039,57.723,67.422,57.87,67.803,57.87z"/>
			<path display="none" fill="#1976D2" d="M56.677,67.508c0.292,0.292,0.675,0.436,1.057,0.436s0.764-0.147,1.056-0.436l6.453-6.449
				c0.583-0.583,0.583-1.528,0-2.111c-0.581-0.581-1.527-0.581-2.108,0l-6.453,6.449C56.092,65.98,56.092,66.923,56.677,67.508z"/>
			<circle display="none" fill="#1976D2" cx="59.131" cy="94.765" r="2.838"/>
			<path fill="#1976D2" d="M40.451,53.181c0.021,0.058,0.048,0.111,0.079,0.165c0.019,0.033,0.023,0.068,0.048,0.099
				c0.013,0.017,0.031,0.022,0.044,0.037c0.062,0.073,0.138,0.13,0.22,0.182c0.031,0.018,0.058,0.045,0.09,0.061
				c0.117,0.053,0.244,0.087,0.382,0.087h20.067c0.138,0,0.265-0.034,0.382-0.087c0.033-0.015,0.059-0.042,0.091-0.061
				c0.082-0.051,0.157-0.108,0.219-0.182c0.014-0.015,0.034-0.021,0.045-0.037c0.021-0.031,0.029-0.066,0.048-0.099
				c0.031-0.053,0.059-0.104,0.078-0.165c0.021-0.061,0.03-0.12,0.037-0.182c0.004-0.038,0.022-0.068,0.022-0.105V37.834
				c0-0.037-0.017-0.07-0.022-0.104c-0.007-0.063-0.017-0.121-0.037-0.182c-0.02-0.059-0.047-0.112-0.078-0.166
				c-0.019-0.033-0.024-0.067-0.048-0.099c-0.015-0.019-0.034-0.028-0.05-0.044c-0.046-0.047-0.092-0.084-0.14-0.121
				c-0.048-0.037-0.092-0.071-0.145-0.097c-0.05-0.024-0.101-0.039-0.156-0.053c-0.062-0.018-0.122-0.033-0.187-0.039
				c-0.022-0.001-0.041-0.013-0.063-0.013H41.312c-0.022,0-0.042,0.011-0.064,0.013c-0.062,0.004-0.119,0.021-0.178,0.037
				c-0.057,0.017-0.113,0.031-0.165,0.057c-0.052,0.024-0.094,0.059-0.14,0.092c-0.05,0.039-0.097,0.077-0.14,0.125
				c-0.014,0.017-0.034,0.026-0.049,0.044c-0.022,0.029-0.027,0.066-0.046,0.099c-0.031,0.053-0.059,0.105-0.079,0.166
				s-0.029,0.119-0.037,0.182c-0.003,0.035-0.02,0.067-0.02,0.104v15.059c0,0.037,0.017,0.069,0.021,0.105
				C40.422,53.062,40.431,53.12,40.451,53.181z M60.46,51.058l-7.588-5.694l7.588-5.695V51.058z M58.627,51.975H44.06l7.284-5.465
				L58.627,51.975z M51.344,44.217l-7.284-5.466h14.567L51.344,44.217z M49.817,45.363l-7.589,5.694V39.668L49.817,45.363z"/>
			<g>
				<path display="none" fill="#1976D2" d="M124.389-33.215H30.002c-1.764,0-3.19,1.43-3.19,3.19v15.321v77.207
					c0,1.762,1.427,3.19,3.19,3.19h94.387c1.764,0,3.189-1.429,3.189-3.19V-14.7v-15.325
					C127.578-31.785,126.152-33.215,124.389-33.215z M33.193-26.833h88.004v8.94H33.193V-26.833z M121.197,59.313H33.193v-70.823
					h88.004V59.313z"/>
				<circle display="none" fill="#1976D2" cx="38.907" cy="-22.36" r="2.489"/>
				<circle display="none" fill="#1976D2" cx="45.289" cy="-22.36" r="2.489"/>
				<circle display="none" fill="#1976D2" cx="51.67" cy="-22.36" r="2.489"/>
				<path fill="#1976D2" d="M42.2,58.084L42.2,58.084l14.062-0.02c0.357,0,0.649-0.35,0.649-0.775c0-0.426-0.292-0.775-0.649-0.775
					c0,0,0,0-0.002,0L42.2,56.533c-0.358,0-0.649,0.35-0.649,0.775C41.551,57.735,41.842,58.084,42.2,58.084z"/>
				<path fill="#1976D2" d="M42.2,62.593L42.2,62.593l14.062-0.019c0.357,0,0.649-0.351,0.649-0.776
					c0-0.427-0.292-0.775-0.649-0.775c0,0,0,0-0.002,0L42.2,61.043c-0.358,0-0.649,0.349-0.649,0.774
					C41.551,62.244,41.842,62.593,42.2,62.593z"/>
				<path fill="#1976D2" d="M63.984,57.594L63.984,57.594l14.061-0.021c0.355,0,0.646-0.348,0.646-0.775
					c0-0.426-0.291-0.775-0.648-0.775c0,0,0,0-0.002,0l-14.059,0.021c-0.357,0-0.65,0.348-0.65,0.774S63.625,57.594,63.984,57.594z"
					/>
				<path fill="#1976D2" d="M63.984,62.093L63.984,62.093l14.061-0.019c0.355,0,0.646-0.35,0.646-0.777
					c0-0.426-0.291-0.773-0.648-0.773c0,0,0,0-0.002,0l-14.059,0.02c-0.357,0-0.65,0.35-0.65,0.775S63.625,62.093,63.984,62.093z"/>
				<path fill="#1976D2" d="M63.984,66.593L63.984,66.593l9.225-0.019c0.359,0,0.65-0.351,0.648-0.778
					c0-0.428-0.291-0.773-0.65-0.773l0,0l-9.225,0.021c-0.359,0-0.65,0.349-0.65,0.776C63.334,66.248,63.626,66.593,63.984,66.593z"
					/>
				<path fill="#1976D2" d="M63.984,39.597L63.984,39.597l14.061-0.02c0.357,0,0.648-0.349,0.648-0.775
					c0-0.426-0.293-0.775-0.648-0.775c0,0,0,0-0.002,0l-14.061,0.021c-0.357,0-0.65,0.348-0.65,0.774
					C63.332,39.248,63.626,39.597,63.984,39.597z"/>
				<path fill="#1976D2" d="M63.984,44.096L63.984,44.096l14.061-0.02c0.355,0,0.646-0.349,0.646-0.775
					c0-0.427-0.291-0.776-0.648-0.776c0,0,0,0-0.002,0l-14.059,0.021c-0.357,0-0.65,0.349-0.65,0.775
					C63.332,43.748,63.626,44.096,63.984,44.096z"/>
				<path fill="#1976D2" d="M63.984,48.597L63.984,48.597l14.061-0.021c0.355,0,0.646-0.349,0.646-0.775s-0.291-0.775-0.648-0.775
					c0,0,0,0-0.002,0l-14.059,0.021c-0.357,0-0.65,0.349-0.65,0.775S63.626,48.597,63.984,48.597z"/>
			</g>
			<path fill="#1976D2" d="M60.336,81.293c0.016,0.044,0.036,0.084,0.061,0.124c0.014,0.025,0.018,0.052,0.035,0.075
				c0.01,0.013,0.023,0.017,0.033,0.028c0.048,0.056,0.105,0.1,0.167,0.138c0.024,0.014,0.044,0.034,0.068,0.046
				c0.089,0.04,0.185,0.066,0.289,0.066h15.208c0.105,0,0.201-0.026,0.291-0.066c0.023-0.012,0.043-0.032,0.068-0.046
				c0.062-0.038,0.119-0.082,0.166-0.138c0.01-0.012,0.025-0.016,0.033-0.028c0.016-0.023,0.021-0.05,0.037-0.075
				c0.023-0.04,0.043-0.078,0.059-0.124s0.023-0.091,0.027-0.138c0.004-0.028,0.018-0.052,0.018-0.08V69.661
				c0-0.028-0.012-0.053-0.018-0.079c-0.004-0.048-0.012-0.092-0.027-0.138c-0.016-0.045-0.035-0.086-0.059-0.125
				c-0.016-0.025-0.02-0.052-0.037-0.075c-0.012-0.014-0.025-0.021-0.037-0.033c-0.035-0.036-0.07-0.063-0.105-0.092
				c-0.037-0.028-0.07-0.055-0.109-0.074c-0.039-0.018-0.078-0.029-0.119-0.04c-0.047-0.014-0.092-0.025-0.141-0.029
				c-0.018-0.002-0.031-0.01-0.049-0.01H60.988c-0.018,0-0.032,0.008-0.049,0.01c-0.047,0.003-0.09,0.016-0.135,0.028
				c-0.043,0.012-0.086,0.023-0.125,0.043c-0.039,0.018-0.071,0.044-0.105,0.069c-0.039,0.029-0.074,0.059-0.106,0.095
				c-0.011,0.012-0.026,0.02-0.037,0.033c-0.017,0.022-0.021,0.05-0.034,0.075c-0.024,0.039-0.045,0.079-0.061,0.125
				c-0.015,0.046-0.022,0.09-0.028,0.138c-0.002,0.026-0.015,0.051-0.015,0.079v11.413c0,0.027,0.013,0.053,0.016,0.079
				C60.313,81.202,60.321,81.247,60.336,81.293z M75.5,79.684l-5.75-4.316l5.75-4.315V79.684z M74.111,80.379h-11.04l5.521-4.142
				L74.111,80.379z M68.592,74.498l-5.521-4.142h11.04L68.592,74.498z M67.434,75.367l-5.75,4.316v-8.632L67.434,75.367z"/>
			<g>
				<path display="none" fill="#1976D2" d="M101.576-2.429H7.19C5.426-2.429,4-1,4,0.761v15.321v77.207
					c0,1.762,1.426,3.191,3.19,3.191h94.386c1.764,0,3.191-1.43,3.191-3.191V16.086V0.761C104.768-1,103.34-2.429,101.576-2.429z
					 M10.382,3.952h88.005v8.94H10.382V3.952z M98.387,90.1H10.382V19.276h88.005V90.1z"/>
				<circle display="none" fill="#1976D2" cx="16.096" cy="8.425" r="2.489"/>
				<circle display="none" fill="#1976D2" cx="22.477" cy="8.425" r="2.489"/>
				<circle display="none" fill="#1976D2" cx="28.858" cy="8.425" r="2.489"/>
				<path fill="#1976D2" d="M41.172,70.383L41.172,70.383l14.061-0.021c0.357,0,0.649-0.348,0.649-0.775
					c0-0.426-0.293-0.773-0.649-0.773c0,0,0,0-0.002,0l-14.061,0.02c-0.357,0-0.65,0.348-0.65,0.775
					C40.52,70.033,40.813,70.383,41.172,70.383z"/>
				<path fill="#1976D2" d="M41.172,74.881L41.172,74.881l14.061-0.02c0.356,0,0.647-0.348,0.647-0.775
					c0-0.426-0.292-0.775-0.649-0.775c0,0,0,0-0.001,0l-14.06,0.021c-0.357,0-0.65,0.348-0.65,0.775
					C40.52,74.533,40.813,74.881,41.172,74.881z"/>
				<path fill="#1976D2" d="M41.172,79.383L41.172,79.383l14.061-0.021c0.356,0,0.647-0.35,0.647-0.775s-0.292-0.775-0.649-0.775
					c0,0,0,0-0.001,0l-14.06,0.021c-0.357,0-0.65,0.348-0.65,0.773C40.52,79.033,40.813,79.383,41.172,79.383z"/>
			</g>
		</g>
	</g>
</g>
</svg>
