<?xml version="1.0" encoding="utf-8"?>
<!-- Generator: Adobe Illustrator 16.0.4, SVG Export Plug-In . SVG Version: 6.00 Build 0)  -->
<!DOCTYPE svg PUBLIC "-//W3C//DTD SVG 1.1//EN" "http://www.w3.org/Graphics/SVG/1.1/DTD/svg11.dtd">
<svg version="1.1" id="Layer_1" xmlns="http://www.w3.org/2000/svg" xmlns:xlink="http://www.w3.org/1999/xlink" x="0px" y="0px"
	 width="60px" height="60px" viewBox="0 0 60 60" enable-background="new 0 0 60 60" xml:space="preserve">
<g id="creative_skills">
	<g display="none">
		
			<linearGradient id="SVGID_1_" gradientUnits="userSpaceOnUse" x1="-182.2139" y1="139.0938" x2="-129.6622" y2="86.542" gradientTransform="matrix(1 0 0 -1 186 143)">
			<stop  offset="0" style="stop-color:#32297C"/>
			<stop  offset="1" style="stop-color:#282761"/>
		</linearGradient>
		
			<rect x="3.392" y="4.299" display="inline" opacity="0.95" fill="url(#SVGID_1_)" enable-background="new    " width="53.338" height="51.766"/>
		<g display="inline">
			<g>
				<g>
					
						<linearGradient id="SVGID_2_" gradientUnits="userSpaceOnUse" x1="-184.9058" y1="141.2412" x2="-127.0931" y2="84.7589" gradientTransform="matrix(1 0 0 -1 186 143)">
						<stop  offset="0" style="stop-color:#95C8FD"/>
						<stop  offset="1" style="stop-color:#73B4F4"/>
					</linearGradient>
					<path fill="url(#SVGID_2_)" d="M1.094,1.759v56.482h57.812V1.759H1.094z M54.312,53.768H5.811V6.354h48.501V53.768z"/>
				</g>
			</g>
		</g>
		<g display="inline">
			<g opacity="0.1">
				<path d="M16.29,19.249c1.561-0.284,3.724-0.496,6.666-0.496c3.191,0,5.531,0.673,7.056,1.949
					c1.417,1.171,2.341,3.05,2.341,5.283c0,2.269-0.709,4.148-2.058,5.425c-1.737,1.738-4.467,2.553-7.552,2.553
					c-0.816,0-1.56-0.036-2.127-0.143v9.007H16.29V19.249z M20.616,30.382c0.532,0.142,1.241,0.179,2.127,0.179
					c3.262,0,5.248-1.597,5.248-4.396c0-2.659-1.844-4.077-4.858-4.077c-1.206,0-2.056,0.105-2.517,0.213V30.382z"/>
			</g>
			<g>
				
					<linearGradient id="SVGID_3_" gradientUnits="userSpaceOnUse" x1="-169.8633" y1="113.5352" x2="-141.0757" y2="113.5352" gradientTransform="matrix(1 0 0 -1 186 143)">
					<stop  offset="0" style="stop-color:#95C8FD"/>
					<stop  offset="1" style="stop-color:#73B4F4"/>
				</linearGradient>
				<path fill="url(#SVGID_3_)" d="M16.29,17.924c1.561-0.284,3.724-0.496,6.666-0.496c3.191,0,5.531,0.673,7.056,1.949
					c1.417,1.171,2.341,3.05,2.341,5.283c0,2.269-0.709,4.148-2.058,5.425c-1.737,1.738-4.467,2.554-7.552,2.554
					c-0.816,0-1.56-0.037-2.127-0.143v9.006H16.29V17.924z M20.616,29.057c0.532,0.142,1.241,0.178,2.127,0.178
					c3.262,0,5.248-1.596,5.248-4.396c0-2.659-1.844-4.077-4.858-4.077c-1.206,0-2.056,0.105-2.517,0.213V29.057z"/>
			</g>
		</g>
		<g display="inline">
			<g opacity="0.1">
				<path d="M33.698,38.82c0.993,0.604,2.872,1.24,4.433,1.24c1.913,0,2.766-0.779,2.766-1.914c0-1.17-0.709-1.773-2.836-2.519
					c-3.369-1.17-4.787-3.014-4.752-5.034c0-3.049,2.518-5.425,6.523-5.425c1.914,0,3.581,0.496,4.572,1.028l-0.85,3.085
					c-0.746-0.426-2.128-0.993-3.652-0.993c-1.561,0-2.41,0.745-2.41,1.809c0,1.099,0.814,1.63,3.014,2.41
					c3.12,1.137,4.574,2.731,4.609,5.283c0,3.12-2.447,5.425-7.021,5.425c-2.092,0-3.97-0.532-5.246-1.239L33.698,38.82z"/>
			</g>
			<g>
				
					<linearGradient id="SVGID_4_" gradientUnits="userSpaceOnUse" x1="-169.8633" y1="110.1328" x2="-141.0766" y2="110.1328" gradientTransform="matrix(1 0 0 -1 186 143)">
					<stop  offset="0" style="stop-color:#95C8FD"/>
					<stop  offset="1" style="stop-color:#73B4F4"/>
				</linearGradient>
				<path fill="url(#SVGID_4_)" d="M33.698,37.495c0.993,0.604,2.872,1.241,4.433,1.241c1.913,0,2.766-0.78,2.766-1.916
					c0-1.17-0.709-1.772-2.836-2.518c-3.369-1.17-4.787-3.014-4.752-5.034c0-3.049,2.518-5.425,6.523-5.425
					c1.914,0,3.581,0.496,4.572,1.028l-0.85,3.085c-0.746-0.426-2.128-0.993-3.652-0.993c-1.561,0-2.41,0.745-2.41,1.809
					c0,1.099,0.814,1.63,3.014,2.411c3.12,1.135,4.574,2.73,4.609,5.282c0,3.12-2.447,5.425-7.021,5.425
					c-2.092,0-3.97-0.531-5.246-1.24L33.698,37.495z"/>
			</g>
		</g>
	</g>
	<g display="none">
		
			<linearGradient id="SVGID_5_" gradientUnits="userSpaceOnUse" x1="-182.2173" y1="139.0996" x2="-129.658" y2="86.5403" gradientTransform="matrix(1 0 0 -1 186 143)">
			<stop  offset="0" style="stop-color:#5E4421"/>
			<stop  offset="1" style="stop-color:#373100"/>
		</linearGradient>
		
			<rect x="3.388" y="4.295" display="inline" opacity="0.95" fill="url(#SVGID_5_)" enable-background="new    " width="53.346" height="51.771"/>
		<g display="inline">
			<g>
				<g>
					
						<linearGradient id="SVGID_6_" gradientUnits="userSpaceOnUse" x1="-184.9111" y1="141.2451" x2="-127.0901" y2="84.7547" gradientTransform="matrix(1 0 0 -1 186 143)">
						<stop  offset="0" style="stop-color:#FDC45E"/>
						<stop  offset="1" style="stop-color:#FC9C0D"/>
					</linearGradient>
					<path fill="url(#SVGID_6_)" d="M1.089,1.755v56.49H58.91V1.755H1.089z M54.314,53.77H5.807V6.351h48.507V53.77L54.314,53.77z"
						/>
				</g>
			</g>
		</g>
		<g display="inline">
			<g opacity="0.1">
				<path d="M22.158,36.118l-2.057,6.772h-4.503l7.659-23.9h5.568l7.766,23.9h-4.68l-2.164-6.772H22.158z M29.002,32.82l-1.88-5.886
					c-0.46-1.454-0.851-3.085-1.205-4.468h-0.07c-0.355,1.383-0.709,3.05-1.136,4.468l-1.844,5.886H29.002z"/>
			</g>
			<g>
				
					<linearGradient id="SVGID_7_" gradientUnits="userSpaceOnUse" x1="-170.8179" y1="113.3848" x2="-143.4205" y2="113.3848" gradientTransform="matrix(1 0 0 -1 186 143)">
					<stop  offset="0" style="stop-color:#FDC45E"/>
					<stop  offset="1" style="stop-color:#FC9C0D"/>
				</linearGradient>
				<path fill="url(#SVGID_7_)" d="M22.158,34.793l-2.057,6.773h-4.503l7.659-23.901h5.568l7.766,23.901h-4.68l-2.164-6.773H22.158z
					 M29.002,31.495l-1.88-5.886c-0.46-1.454-0.851-3.085-1.205-4.468h-0.07c-0.355,1.383-0.709,3.05-1.136,4.468l-1.844,5.886
					H29.002z"/>
			</g>
		</g>
		<g display="inline">
			<g opacity="0.1">
				<path d="M42.938,20.8c0,1.312-0.959,2.34-2.481,2.34c-1.455,0-2.412-1.028-2.412-2.34c0-1.348,0.992-2.377,2.447-2.377
					C41.979,18.423,42.9,19.452,42.938,20.8z M38.291,42.893V25.622h4.396v17.271H38.291z"/>
			</g>
			<g>
				
					<linearGradient id="SVGID_8_" gradientUnits="userSpaceOnUse" x1="-170.8208" y1="113.668" x2="-143.4187" y2="113.668" gradientTransform="matrix(1 0 0 -1 186 143)">
					<stop  offset="0" style="stop-color:#FDC45E"/>
					<stop  offset="1" style="stop-color:#FC9C0D"/>
				</linearGradient>
				<path fill="url(#SVGID_8_)" d="M42.938,19.475c0,1.312-0.959,2.34-2.481,2.34c-1.455,0-2.412-1.028-2.412-2.34
					c0-1.348,0.992-2.377,2.447-2.377C41.979,17.098,42.9,18.127,42.938,19.475z M38.291,41.566V24.296h4.396v17.271H38.291z"/>
			</g>
		</g>
	</g>
	<g display="none">
		
			<linearGradient id="SVGID_9_" gradientUnits="userSpaceOnUse" x1="-182.5518" y1="138.6475" x2="-129.3278" y2="86.9925" gradientTransform="matrix(1 0 0 -1 186 143)">
			<stop  offset="0" style="stop-color:#2C344B"/>
			<stop  offset="1" style="stop-color:#302F41"/>
		</linearGradient>
		<rect x="3.448" y="4.354" display="inline" fill="url(#SVGID_9_)" width="53.224" height="51.655"/>
		<g display="inline">
			<g>
				<g>
					
						<linearGradient id="SVGID_10_" gradientUnits="userSpaceOnUse" x1="-184.8442" y1="141.1816" x2="-127.1559" y2="84.8208" gradientTransform="matrix(1 0 0 -1 186 143)">
						<stop  offset="0" style="stop-color:#C1E1EC"/>
						<stop  offset="1" style="stop-color:#99C1CD"/>
					</linearGradient>
					<path fill="url(#SVGID_10_)" d="M1.155,1.819V58.18h57.689V1.819H1.155z M54.259,53.714H5.861V6.405h48.397L54.259,53.714
						L54.259,53.714z"/>
				</g>
			</g>
		</g>
		<g display="inline">
			<g>
				
					<linearGradient id="SVGID_11_" gradientUnits="userSpaceOnUse" x1="-168.5522" y1="113.585" x2="-141.3566" y2="113.585" gradientTransform="matrix(1 0 0 -1 186 143)">
					<stop  offset="0" style="stop-color:#C1E1EC"/>
					<stop  offset="1" style="stop-color:#99C1CD"/>
				</linearGradient>
				<path fill="url(#SVGID_11_)" d="M17.391,17.233h4.446v20.639H31.85v3.726H17.391V17.233z"/>
			</g>
		</g>
		<g display="inline">
			<g>
				
					<linearGradient id="SVGID_12_" gradientUnits="userSpaceOnUse" x1="-168.5518" y1="110.4062" x2="-141.3575" y2="110.4062" gradientTransform="matrix(1 0 0 -1 186 143)">
					<stop  offset="0" style="stop-color:#C1E1EC"/>
					<stop  offset="1" style="stop-color:#99C1CD"/>
				</linearGradient>
				<path fill="url(#SVGID_12_)" d="M35.029,29.668c0-2.385-0.034-4.084-0.145-5.675h3.867l0.145,3.362h0.146
					c0.867-2.495,2.928-3.761,4.809-3.761c0.434,0,0.687,0.037,1.047,0.109v4.192c-0.36-0.072-0.76-0.145-1.301-0.145
					c-2.133,0-3.578,1.374-3.977,3.361c-0.071,0.397-0.145,0.867-0.145,1.373v9.109h-4.447V29.668z"/>
			</g>
		</g>
	</g>
</g>
<g id="Dev_skills" display="none">
	<path id="Angular" fill="#C4473A" d="M25.42,30h9.575l-5.09-10.643L25.42,30z M29.922,4.101l-24.37,8.577l3.851,31.93L29.949,55.9
		L50.6,44.454l3.85-31.929L29.922,4.101z M23.438,34.523l-2.988,7.475l-5.585,0.023L29.921,8.677l-0.029-0.062h-0.026V8.559
		l0.026,0.055h0.058L30,8.501v0.113h-0.051l-0.028,0.062l15.706,33.484l-5.378-0.118l-3.308-7.641l-7.062,0.031"/>
	<path id="bootstrap" fill="#5B4282" d="M35.031,30.455c-0.963-0.316-2.348-0.249-4.157-0.249h-7.266v9.483h7.771
		c1.213,0,2.066-0.129,2.557-0.221c0.867-0.156,1.59-0.455,2.172-0.816s1.06-0.909,1.435-1.601c0.375-0.692,0.562-1.5,0.562-2.405
		c0-1.059-0.271-1.871-0.813-2.652C36.748,31.213,35.994,30.771,35.031,30.455z M34.033,26.119c0.957-0.283,1.676-0.78,2.16-1.438
		c0.483-0.658,0.727-1.497,0.727-2.492c0-0.942-0.225-1.779-0.678-2.496c-0.451-0.718-1.098-0.996-1.938-1.261
		c-0.841-0.265-2.281-0.184-4.322-0.184h-6.375v8.247h6.839C32.115,26.495,33.309,26.339,34.033,26.119z M55.771,11.084
		c0-3.787-3.068-6.855-6.855-6.855H11.083c-3.787,0-6.855,3.068-6.855,6.855v37.832c0,3.787,3.069,6.855,6.855,6.855h37.833
		c3.787,0,6.855-3.068,6.855-6.855V11.084z M41.156,38.348c-0.562,1.144-1.258,2.026-2.084,2.646
		c-0.826,0.617-1.865,1.146-3.111,1.462c-1.246,0.317-2.773,0.532-4.582,0.532H19.897V14.537h11.308c2.17,0,3.91,0.251,5.221,0.825
		c1.312,0.575,2.34,1.442,3.082,2.637c0.744,1.196,1.115,2.437,1.115,3.74c0,1.215-0.33,2.354-0.99,3.426
		c-0.658,1.074-1.652,1.937-2.982,2.595c1.718,0.505,3.039,1.362,3.963,2.577c0.925,1.214,1.386,2.647,1.386,4.302
		C41.998,35.969,41.717,37.205,41.156,38.348z"/>
	<path id="git" display="inline" fill="#F34F29" d="M55.085,27.678L32.327,4.921c-1.31-1.311-3.436-1.311-4.748,0l-4.725,4.727
		l5.995,5.995c1.394-0.471,2.99-0.155,4.101,0.955c1.114,1.118,1.429,2.729,0.946,4.126l5.777,5.778
		c1.396-0.481,3.012-0.17,4.126,0.948c1.562,1.559,1.562,4.087,0,5.647c-1.562,1.562-4.088,1.562-5.649,0
		c-1.174-1.175-1.463-2.897-0.869-4.343l-5.387-5.389l-0.002,14.179c0.381,0.188,0.739,0.439,1.058,0.755
		c1.56,1.56,1.56,4.087,0,5.65c-1.562,1.56-4.089,1.56-5.648,0c-1.56-1.563-1.688-4.091-0.128-5.65
		c0.386-0.386,0.766-0.677,1.179-0.87V23.118c-0.413-0.195-0.792-0.484-1.179-0.872c-1.181-1.181-1.402-2.915-0.796-4.367
		l-5.876-5.91L4.911,27.573C3.6,28.885,3.608,31.01,4.919,32.32l22.762,22.759c1.31,1.312,3.438,1.312,4.75,0l22.65-22.652
		C56.395,31.116,56.396,28.989,55.085,27.678z"/>
	<g id="github">
		<path display="inline" fill="#181616" d="M30,4.308c-14.547,0-26.342,11.793-26.342,26.342c0,11.639,7.547,21.513,18.015,24.996
			c1.316,0.244,1.799-0.571,1.799-1.269c0-0.627-0.024-2.702-0.036-4.903c-7.328,1.594-8.875-3.107-8.875-3.107
			c-1.198-3.044-2.925-3.854-2.925-3.854c-2.39-1.637,0.18-1.602,0.18-1.602c2.645,0.186,4.038,2.713,4.038,2.713
			c2.35,4.025,6.163,2.863,7.666,2.189c0.237-1.703,0.919-2.863,1.673-3.521c-5.851-0.665-12.002-2.924-12.002-13.019
			c0-2.875,1.03-5.225,2.715-7.07c-0.274-0.664-1.176-3.343,0.255-6.971c0,0,2.211-0.708,7.246,2.699
			c2.102-0.583,4.355-0.877,6.595-0.887c2.236,0.01,4.492,0.303,6.598,0.887c5.029-3.408,7.238-2.701,7.238-2.701
			c1.434,3.627,0.531,6.309,0.258,6.971c1.689,1.846,2.711,4.195,2.711,7.071c0,10.12-6.162,12.345-12.027,12.999
			c0.943,0.816,1.787,2.42,1.787,4.877c0,3.524-0.03,6.362-0.03,7.229c0,0.702,0.476,1.522,1.81,1.267
			c10.461-3.488,18-13.359,18-24.994C56.342,16.102,44.547,4.308,30,4.308L30,4.308z"/>
		<path display="inline" fill="#181616" d="M13.635,42.13c-0.058,0.131-0.264,0.169-0.452,0.08
			c-0.192-0.086-0.299-0.265-0.237-0.396c0.057-0.137,0.263-0.172,0.454-0.084C13.592,41.818,13.701,41.999,13.635,42.13
			L13.635,42.13z M14.702,43.32c-0.125,0.115-0.371,0.062-0.538-0.125c-0.172-0.182-0.205-0.428-0.077-0.547
			c0.13-0.113,0.368-0.06,0.541,0.125C14.8,42.958,14.834,43.202,14.702,43.32L14.702,43.32z M15.741,44.836
			c-0.162,0.112-0.425,0.007-0.589-0.229c-0.162-0.233-0.162-0.516,0.004-0.627c0.163-0.111,0.423-0.011,0.589,0.221
			C15.905,44.439,15.905,44.723,15.741,44.836L15.741,44.836z M17.163,46.303c-0.144,0.158-0.452,0.116-0.677-0.102
			c-0.23-0.211-0.294-0.516-0.149-0.674c0.146-0.159,0.456-0.113,0.682,0.101c0.23,0.213,0.3,0.515,0.146,0.673L17.163,46.303z
			 M19.126,47.152c-0.064,0.205-0.36,0.301-0.659,0.214c-0.297-0.091-0.493-0.333-0.432-0.542c0.061-0.207,0.359-0.307,0.66-0.211
			C18.993,46.702,19.188,46.941,19.126,47.152z M21.282,47.312c0.008,0.215-0.245,0.396-0.558,0.398
			c-0.315,0.008-0.57-0.169-0.574-0.381c0-0.221,0.248-0.398,0.563-0.404c0.312-0.005,0.569,0.169,0.569,0.385V47.312z
			 M23.288,46.97c0.038,0.212-0.18,0.429-0.491,0.487c-0.306,0.057-0.589-0.074-0.628-0.285c-0.038-0.217,0.184-0.436,0.489-0.49
			C22.97,46.626,23.249,46.755,23.288,46.97L23.288,46.97z"/>
	</g>
	<path id="html" fill="#E44D26" d="M6.882,3.82l4.208,47.145l18.883,5.215l18.935-5.209l4.21-47.151H6.882z M44.367,14.981
		l-0.266,3.018l-0.115,1.382H21.837l0.528,5.889h21.096l-0.143,1.459l-1.359,15.19l-0.1,0.955L30,46.135v0.002l-0.014,0.006
		l-11.852-3.121l-0.804-8.92h5.81l0.412,4.594l6.43,1.716H30v-0.229l6.458-1.631l0.675-7.393H17.072l-1.423-16.032l-0.139-1.633
		h28.994L44.367,14.981z"/>
	<path id="javaScript" fill="#F0DB4F" d="M4.102,4.102v51.796h51.796V4.102H4.102z M31.5,48.236
		c-0.766,1.556-2.224,2.576-3.916,3.066c-2.599,0.598-5.084,0.258-6.933-0.853c-1.237-0.759-2.203-1.927-2.859-3.273l3.945-2.416
		c0.034,0.015,0.138,0.202,0.276,0.444c0.503,0.843,0.938,1.439,1.79,1.857c0.838,0.287,2.678,0.47,3.388-1.006
		c0.434-0.75,0.296-3.16,0.296-5.828c0-4.189,0.019-8.365,0.019-12.51h4.852c0,4.559,0.025,8.875,0,13.324
		C32.367,43.771,32.604,46.202,31.5,48.236z M51.627,46.867c-1.686,5.77-11.089,5.956-14.848,2.146
		c-0.793-0.897-1.291-1.365-1.764-2.402c1.996-1.149,1.996-1.149,3.939-2.272c1.055,1.622,2.029,2.517,3.786,2.88
		c2.382,0.291,4.778-0.527,4.239-3.059c-0.553-2.064-4.877-2.567-7.818-4.777c-2.989-2.006-3.689-6.884-1.232-9.669
		c0.817-1.03,2.213-1.8,3.678-2.17l1.527-0.197c2.936-0.06,4.77,0.715,6.115,2.219c0.375,0.38,0.682,0.789,1.252,1.677
		c-1.562,0.996-1.559,0.985-3.797,2.437c-0.479-1.031-1.271-1.677-2.109-1.957c-1.303-0.396-2.945,0.033-3.285,1.409
		c-0.117,0.425-0.094,0.818,0.094,1.519c0.527,1.203,2.299,1.728,3.886,2.455c4.571,1.854,6.116,3.842,6.495,6.209
		C52.15,45.35,51.697,46.67,51.627,46.867z"/>
	<path id="wordpress" fill="#494949" d="M30.039,55.948c14.273-0.022,25.827-11.632,25.827-25.954
		c0-14.089-11.501-25.692-25.241-25.938C16.195,3.799,4.137,15.508,4.134,29.707C4.129,44.314,15.632,55.969,30.039,55.948z
		 M29.997,5.313C43.7,5.308,54.619,16.442,54.613,30.415c-0.004,13.19-11.211,24.228-24.606,24.229
		C16.36,54.648,5.386,43.584,5.386,29.823C5.387,16.417,16.533,5.317,29.997,5.313z M19.655,18.333
		c0.224,0.746-0.403,1.006-1.07,1.059c-0.701,0.054-1.403,0.107-2.217,0.169c2.688,8.01,5.337,15.901,8.047,23.975
		c0.193-0.315,0.272-0.405,0.308-0.509c1.488-4.448,2.985-8.895,4.436-13.355c0.132-0.407,0.066-0.945-0.079-1.364
		c-0.768-2.215-1.688-4.383-2.36-6.625c-0.46-1.535-1.07-2.528-2.885-2.35c-0.309,0.03-0.687-0.634-1.032-0.978
		c0.418-0.25,0.833-0.71,1.256-0.716c3.694-0.057,7.39-0.057,11.083,0.003c0.424,0.007,0.84,0.479,1.258,0.735
		c-0.365,0.335-0.683,0.836-1.11,0.967c-0.687,0.207-1.45,0.168-2.272,0.241c2.691,8.006,5.326,15.849,8.059,23.97
		c1.22-4.055,2.355-7.777,3.46-11.511c0.985-3.331,0.399-6.443-1.384-9.378c-0.535-0.881-1.193-1.739-1.498-2.701
		c-0.344-1.095-0.631-2.341-0.446-3.439c0.31-1.861,1.737-2.785,3.67-2.962c-10.573-9.813-27.19-6.301-33.313,4.362
		c2.357-0.108,4.607-0.252,6.859-0.283C18.849,17.64,19.555,17.999,19.655,18.333L19.655,18.333z M23.868,50.802
		c-0.049,0.146-0.052,0.304-0.091,0.542c4.558,1.266,9.026,1.172,13.6-0.367L30.39,31.836
		C28.153,38.337,26.008,44.568,23.868,50.802z M20.346,49.936L9.819,21.057C5.069,30.334,8.683,44.489,20.346,49.936z M52.173,31.38
		c0.334-4.387-1.18-10.46-2.485-11.295c-0.146,1.613-0.043,3.408-0.508,5.044c-1.09,3.854-2.422,7.641-3.705,11.438
		c-1.396,4.127-2.846,8.236-4.271,12.354C47.902,44.949,51.587,39.086,52.173,31.38z"/>
</g>
<g id="Page-1">
	<g id="symbol">
		<path fill="#FFC800" d="M49.889,9.072l-9.697-4.152H19.808l-9.696,4.152l-7.865,8.967L30.001,55.08l27.752-37.041L49.889,9.072z
			 M54.416,18.414l-7.326,5.649l-5.83-8.469l8.201-3.899L54.416,18.414z M43.545,25.739H16.454l5.551-9.827h15.989L43.545,25.739z
			 M37.971,6.756l7.496,3.22l-7.525,3.535H22.058l-7.526-3.535l7.412-3.222L37.971,6.756z M10.446,11.695l8.203,3.899l-5.831,8.469
			l-7.326-5.649L10.446,11.695z M8.472,23.968l4.694,3.671l11.218,18.228L8.472,23.968z M17.106,28.732h25.787L30.001,51.637
			L17.106,28.732z M35.523,45.867l11.219-18.228l4.693-3.671L35.523,45.867z"/>
	</g>
</g>
</svg>
