<?xml version="1.0" encoding="utf-8"?>
<!-- Generator: Adobe Illustrator 16.0.4, SVG Export Plug-In . SVG Version: 6.00 Build 0)  -->
<!DOCTYPE svg PUBLIC "-//W3C//DTD SVG 1.1//EN" "http://www.w3.org/Graphics/SVG/1.1/DTD/svg11.dtd">
<svg version="1.1" id="Layer_1" xmlns="http://www.w3.org/2000/svg" xmlns:xlink="http://www.w3.org/1999/xlink" x="0px" y="0px"
	 width="60px" height="60px" viewBox="0 0 60 60" enable-background="new 0 0 60 60" xml:space="preserve">
<g id="creative_skills" display="none">
	<g>
		
			<linearGradient id="SVGID_1_" gradientUnits="userSpaceOnUse" x1="330.3369" y1="-214.9189" x2="382.8886" y2="-267.4707" gradientTransform="matrix(1 0 0 -1 -326.5498 -211.0146)">
			<stop  offset="0" style="stop-color:#32297C"/>
			<stop  offset="1" style="stop-color:#282761"/>
		</linearGradient>
		
			<rect x="3.392" y="4.299" display="inline" opacity="0.95" fill="url(#SVGID_1_)" enable-background="new    " width="53.338" height="51.766"/>
		<g display="inline">
			<g>
				<g>
					
						<linearGradient id="SVGID_2_" gradientUnits="userSpaceOnUse" x1="327.6426" y1="-212.7744" x2="385.4552" y2="-269.2567" gradientTransform="matrix(1 0 0 -1 -326.5498 -211.0146)">
						<stop  offset="0" style="stop-color:#95C8FD"/>
						<stop  offset="1" style="stop-color:#73B4F4"/>
					</linearGradient>
					<path fill="url(#SVGID_2_)" d="M1.094,1.759v56.482h57.812V1.759H1.094z M54.312,53.768H5.811V6.354h48.501V53.768z"/>
				</g>
			</g>
		</g>
		<g display="inline">
			<g opacity="0.1">
				<path d="M16.29,19.249c1.561-0.284,3.724-0.496,6.666-0.496c3.191,0,5.531,0.673,7.056,1.949
					c1.417,1.171,2.341,3.05,2.341,5.283c0,2.269-0.709,4.148-2.058,5.425c-1.737,1.738-4.467,2.553-7.552,2.553
					c-0.816,0-1.56-0.036-2.127-0.143v9.007H16.29V19.249z M20.616,30.382c0.532,0.142,1.241,0.179,2.127,0.179
					c3.262,0,5.248-1.597,5.248-4.396c0-2.659-1.844-4.077-4.858-4.077c-1.206,0-2.056,0.105-2.517,0.213V30.382z"/>
			</g>
			<g>
				
					<linearGradient id="SVGID_3_" gradientUnits="userSpaceOnUse" x1="342.6865" y1="-240.4795" x2="371.4741" y2="-240.4795" gradientTransform="matrix(1 0 0 -1 -326.5498 -211.0146)">
					<stop  offset="0" style="stop-color:#95C8FD"/>
					<stop  offset="1" style="stop-color:#73B4F4"/>
				</linearGradient>
				<path fill="url(#SVGID_3_)" d="M16.29,17.924c1.561-0.284,3.724-0.496,6.666-0.496c3.191,0,5.531,0.673,7.056,1.949
					c1.417,1.171,2.341,3.05,2.341,5.283c0,2.269-0.709,4.148-2.058,5.425c-1.737,1.738-4.467,2.554-7.552,2.554
					c-0.816,0-1.56-0.037-2.127-0.143v9.006H16.29V17.924z M20.616,29.057c0.532,0.142,1.241,0.178,2.127,0.178
					c3.262,0,5.248-1.596,5.248-4.396c0-2.659-1.844-4.077-4.858-4.077c-1.206,0-2.056,0.105-2.517,0.213V29.057z"/>
			</g>
		</g>
		<g display="inline">
			<g opacity="0.1">
				<path d="M33.698,38.82c0.993,0.604,2.872,1.24,4.433,1.24c1.913,0,2.766-0.779,2.766-1.914c0-1.17-0.709-1.773-2.836-2.519
					c-3.369-1.17-4.787-3.014-4.752-5.034c0-3.049,2.518-5.425,6.523-5.425c1.914,0,3.581,0.496,4.572,1.028l-0.85,3.085
					c-0.746-0.426-2.128-0.993-3.652-0.993c-1.561,0-2.41,0.745-2.41,1.809c0,1.099,0.814,1.63,3.014,2.41
					c3.12,1.137,4.574,2.731,4.609,5.283c0,3.12-2.447,5.425-7.021,5.425c-2.092,0-3.97-0.532-5.246-1.239L33.698,38.82z"/>
			</g>
			<g>
				
					<linearGradient id="SVGID_4_" gradientUnits="userSpaceOnUse" x1="342.6865" y1="-243.8818" x2="371.4732" y2="-243.8818" gradientTransform="matrix(1 0 0 -1 -326.5498 -211.0146)">
					<stop  offset="0" style="stop-color:#95C8FD"/>
					<stop  offset="1" style="stop-color:#73B4F4"/>
				</linearGradient>
				<path fill="url(#SVGID_4_)" d="M33.698,37.495c0.993,0.604,2.872,1.241,4.433,1.241c1.913,0,2.766-0.78,2.766-1.916
					c0-1.17-0.709-1.772-2.836-2.518c-3.369-1.17-4.787-3.014-4.752-5.034c0-3.049,2.518-5.425,6.523-5.425
					c1.914,0,3.581,0.496,4.572,1.028l-0.85,3.085c-0.746-0.426-2.128-0.993-3.652-0.993c-1.561,0-2.41,0.745-2.41,1.809
					c0,1.099,0.814,1.63,3.014,2.411c3.12,1.135,4.574,2.73,4.609,5.282c0,3.12-2.447,5.425-7.021,5.425
					c-2.092,0-3.97-0.531-5.246-1.24L33.698,37.495z"/>
			</g>
		</g>
	</g>
	<g>
		
			<linearGradient id="SVGID_5_" gradientUnits="userSpaceOnUse" x1="330.3301" y1="-214.9165" x2="382.8894" y2="-267.4758" gradientTransform="matrix(1 0 0 -1 -326.5498 -211.0146)">
			<stop  offset="0" style="stop-color:#5E4421"/>
			<stop  offset="1" style="stop-color:#373100"/>
		</linearGradient>
		
			<rect x="3.388" y="4.295" display="inline" opacity="0.95" fill="url(#SVGID_5_)" enable-background="new    " width="53.346" height="51.771"/>
		<g display="inline">
			<g>
				<g>
					
						<linearGradient id="SVGID_6_" gradientUnits="userSpaceOnUse" x1="327.6387" y1="-212.769" x2="385.4597" y2="-269.2595" gradientTransform="matrix(1 0 0 -1 -326.5498 -211.0146)">
						<stop  offset="0" style="stop-color:#FDC45E"/>
						<stop  offset="1" style="stop-color:#FC9C0D"/>
					</linearGradient>
					<path fill="url(#SVGID_6_)" d="M1.089,1.755v56.49H58.91V1.755H1.089z M54.314,53.77H5.807V6.351h48.507V53.77L54.314,53.77z"
						/>
				</g>
			</g>
		</g>
		<g display="inline">
			<g opacity="0.1">
				<path d="M22.158,36.118l-2.057,6.772h-4.503l7.659-23.9h5.568l7.766,23.9h-4.68l-2.164-6.772H22.158z M29.002,32.82l-1.88-5.886
					c-0.46-1.454-0.851-3.085-1.205-4.468h-0.07c-0.355,1.383-0.709,3.05-1.136,4.468l-1.844,5.886H29.002z"/>
			</g>
			<g>
				
					<linearGradient id="SVGID_7_" gradientUnits="userSpaceOnUse" x1="341.7324" y1="-240.6304" x2="369.1292" y2="-240.6304" gradientTransform="matrix(1 0 0 -1 -326.5498 -211.0146)">
					<stop  offset="0" style="stop-color:#FDC45E"/>
					<stop  offset="1" style="stop-color:#FC9C0D"/>
				</linearGradient>
				<path fill="url(#SVGID_7_)" d="M22.158,34.793l-2.057,6.773h-4.503l7.659-23.901h5.568l7.766,23.901h-4.68l-2.164-6.773H22.158z
					 M29.002,31.495l-1.88-5.886c-0.46-1.454-0.851-3.085-1.205-4.468h-0.07c-0.355,1.383-0.709,3.05-1.136,4.468l-1.844,5.886
					H29.002z"/>
			</g>
		</g>
		<g display="inline">
			<g opacity="0.1">
				<path d="M42.938,20.8c0,1.312-0.959,2.34-2.481,2.34c-1.455,0-2.412-1.028-2.412-2.34c0-1.348,0.992-2.377,2.447-2.377
					C41.979,18.423,42.9,19.452,42.938,20.8z M38.291,42.893V25.622h4.396v17.271H38.291z"/>
			</g>
			<g>
				
					<linearGradient id="SVGID_8_" gradientUnits="userSpaceOnUse" x1="341.7285" y1="-240.3467" x2="369.1306" y2="-240.3467" gradientTransform="matrix(1 0 0 -1 -326.5498 -211.0146)">
					<stop  offset="0" style="stop-color:#FDC45E"/>
					<stop  offset="1" style="stop-color:#FC9C0D"/>
				</linearGradient>
				<path fill="url(#SVGID_8_)" d="M42.938,19.475c0,1.312-0.959,2.34-2.481,2.34c-1.455,0-2.412-1.028-2.412-2.34
					c0-1.348,0.992-2.377,2.447-2.377C41.979,17.098,42.9,18.127,42.938,19.475z M38.291,41.566V24.296h4.396v17.271H38.291z"/>
			</g>
		</g>
	</g>
	<g display="inline">
		
			<linearGradient id="SVGID_9_" gradientUnits="userSpaceOnUse" x1="329.9971" y1="-215.3682" x2="383.2211" y2="-267.0232" gradientTransform="matrix(1 0 0 -1 -326.5498 -211.0146)">
			<stop  offset="0" style="stop-color:#2C344B"/>
			<stop  offset="1" style="stop-color:#302F41"/>
		</linearGradient>
		<rect x="3.448" y="4.354" fill="url(#SVGID_9_)" width="53.224" height="51.655"/>
		<g>
			<g>
				<g>
					
						<linearGradient id="SVGID_10_" gradientUnits="userSpaceOnUse" x1="327.7051" y1="-212.8335" x2="385.3934" y2="-269.1943" gradientTransform="matrix(1 0 0 -1 -326.5498 -211.0146)">
						<stop  offset="0" style="stop-color:#C1E1EC"/>
						<stop  offset="1" style="stop-color:#99C1CD"/>
					</linearGradient>
					<path fill="url(#SVGID_10_)" d="M1.155,1.819V58.18h57.689V1.819H1.155z M54.259,53.714H5.861V6.405h48.397L54.259,53.714
						L54.259,53.714z"/>
				</g>
			</g>
		</g>
		<g>
			<g>
				
					<linearGradient id="SVGID_11_" gradientUnits="userSpaceOnUse" x1="343.998" y1="-240.4297" x2="371.1927" y2="-240.4297" gradientTransform="matrix(1 0 0 -1 -326.5498 -211.0146)">
					<stop  offset="0" style="stop-color:#C1E1EC"/>
					<stop  offset="1" style="stop-color:#99C1CD"/>
				</linearGradient>
				<path fill="url(#SVGID_11_)" d="M17.391,17.233h4.446v20.639H31.85v3.726H17.391V17.233z"/>
			</g>
		</g>
		<g>
			<g>
				
					<linearGradient id="SVGID_12_" gradientUnits="userSpaceOnUse" x1="343.998" y1="-243.6084" x2="371.1923" y2="-243.6084" gradientTransform="matrix(1 0 0 -1 -326.5498 -211.0146)">
					<stop  offset="0" style="stop-color:#C1E1EC"/>
					<stop  offset="1" style="stop-color:#99C1CD"/>
				</linearGradient>
				<path fill="url(#SVGID_12_)" d="M35.029,29.668c0-2.385-0.034-4.084-0.145-5.675h3.867l0.145,3.362h0.146
					c0.867-2.495,2.928-3.761,4.809-3.761c0.434,0,0.687,0.037,1.047,0.109v4.192c-0.36-0.072-0.76-0.145-1.301-0.145
					c-2.133,0-3.578,1.374-3.977,3.361c-0.071,0.397-0.145,0.867-0.145,1.373v9.109h-4.447V29.668z"/>
			</g>
		</g>
	</g>
</g>
<g id="Dev_skills" display="none">
</g>
<g display="none">
	<path display="inline" fill="#DC395F" d="M52.923,2H7.077C4.273,2,2,4.273,2,7.077v45.846C2,55.727,4.273,58,7.077,58h45.846
		C55.727,58,58,55.727,58,52.923V7.077C58,4.273,55.727,2,52.923,2"/>
	<path display="inline" fill="#FFFFFF" d="M20.715,19.619c1.862,0,3.421-1.458,3.421-3.371c0-1.911-1.559-3.37-3.421-3.37
		c-1.861,0-3.42,1.459-3.42,3.37C17.295,18.16,18.854,19.619,20.715,19.619"/>
	<path display="inline" fill="#FFFFFF" d="M13.622,37.671c-0.201,0.855-0.302,1.778-0.302,2.532c0,2.969,1.61,4.938,5.031,4.938
		c2.837,0,5.138-1.685,6.793-4.405l-1.011,4.059h5.633l3.22-12.914c0.805-3.271,2.365-4.967,4.729-4.967
		c1.861,0,3.019,1.157,3.019,3.068c0,0.554-0.051,1.157-0.251,1.812l-1.66,5.937c-0.252,0.854-0.354,1.711-0.354,2.515
		c0,2.818,1.66,4.88,5.132,4.88c2.969,0,5.333-1.911,6.641-6.489l-2.213-0.854c-1.107,3.067-2.063,3.622-2.816,3.622
		c-0.756,0-1.158-0.503-1.158-1.509c0-0.452,0.102-0.955,0.251-1.56l1.61-5.783c0.402-1.359,0.554-2.562,0.554-3.669
		c0-4.327-2.616-6.585-5.786-6.585c-2.968,0-5.986,2.677-7.496,5.495l1.107-5.058h-8.602l-1.208,4.455h4.025l-2.478,9.923
		c-1.946,4.325-5.521,4.396-5.97,4.296c-0.737-0.166-1.208-0.447-1.208-1.403c0-0.553,0.101-1.347,0.352-2.303l3.773-14.968h-9.558
		l-1.208,4.455h3.974L13.622,37.671"/>
</g>
<radialGradient id="SVGID_13_" cx="-222.8574" cy="-264.502" r="0.0742" gradientTransform="matrix(545.6736 0 0 -528.3113 121627.6094 -139724.6719)" gradientUnits="userSpaceOnUse">
	<stop  offset="0" style="stop-color:#4B2B36;stop-opacity:0.98"/>
	<stop  offset="1" style="stop-color:#250012"/>
</radialGradient>
<path display="none" fill="url(#SVGID_13_)" d="M2.427,3.427h53.396v51.939H2.427V3.427z"/>
<g display="none">
	<path display="inline" fill="#FF408C" d="M3.865,5.034h52.021v50.601H3.865V5.034z M1.5,58h56.75V2.669H1.5V58z M37.395,25.652
		c-0.354-0.165-0.827-0.236-1.396-0.236c-3.05,0-5.179,2.341-5.179,6.243c0,4.444,2.176,6.241,4.896,6.241
		c0.591,0,1.205-0.07,1.679-0.283V25.652L37.395,25.652z M36.141,21.798c0.497,0,0.78,0,1.254,0.048v-6.29
		c0-0.166,0.118-0.236,0.236-0.236h3.83c0.189,0,0.237,0.071,0.237,0.189v22.109c0,0.663,0,1.49,0.118,2.388
		c0,0.167-0.048,0.189-0.213,0.285c-2.033,0.969-4.186,1.395-6.196,1.395c-5.225,0-8.96-3.239-8.96-9.838
		C26.422,26.196,30.159,21.798,36.141,21.798z M22.261,41.022c0,0.236-0.047,0.308-0.308,0.308h-3.641
		c-0.237,0-0.307-0.118-0.307-0.308V15.627c0-0.237,0.117-0.308,0.307-0.308h3.665c0.189,0,0.284,0.071,0.284,0.284V41.022
		L22.261,41.022z"/>
</g>
<g>
	<g>
		
			<linearGradient id="SVGID_14_" gradientUnits="userSpaceOnUse" x1="-37.9536" y1="63.417" x2="-37.9536" y2="63.1973" gradientTransform="matrix(256 0 0 -256 9746 16236.5)">
			<stop  offset="0" style="stop-color:#0091E6"/>
			<stop  offset="1" style="stop-color:#0079BF"/>
		</linearGradient>
		<path fill="url(#SVGID_14_)" d="M7.317,1.833h45.198C55.544,1.833,58,4.289,58,7.318v45.197C58,55.544,55.544,58,52.515,58H7.317
			c-3.029,0-5.485-2.456-5.485-5.485V7.318C1.832,4.289,4.288,1.833,7.317,1.833z"/>
		<path fill="#FFFFFF" d="M36.199,9.135h11.865c1.455,0,2.633,1.179,2.633,2.633v19.309c0,1.454-1.178,2.632-2.633,2.632H36.199
			c-1.454,0-2.633-1.178-2.633-2.632V11.768C33.566,10.313,34.745,9.135,36.199,9.135z"/>
		<path fill="#FFFFFF" d="M11.767,9.135h11.865c1.454,0,2.633,1.179,2.633,2.633v33.35c0,1.454-1.179,2.633-2.633,2.633H11.767
			c-1.454,0-2.633-1.179-2.633-2.633v-33.35C9.134,10.313,10.312,9.135,11.767,9.135z"/>
	</g>
</g>
</svg>
