<?xml version="1.0" encoding="utf-8"?>
<!-- Generator: Adobe Illustrator 16.0.4, SVG Export Plug-In . SVG Version: 6.00 Build 0)  -->
<!DOCTYPE svg PUBLIC "-//W3C//DTD SVG 1.1//EN" "http://www.w3.org/Graphics/SVG/1.1/DTD/svg11.dtd">
<svg version="1.1" xmlns="http://www.w3.org/2000/svg" xmlns:xlink="http://www.w3.org/1999/xlink" x="0px" y="0px" width="360px"
	 height="260px" viewBox="0 0 360 260" enable-background="new 0 0 360 260" xml:space="preserve">
<g id="Layer_1">
</g>
<g id="JS">
	<rect x="1" fill="#F27B4F" width="360" height="260"/>
	<g>
		<text transform="matrix(1 0 0 1 18.2783 140.0596)" fill="#FFFFFF" font-family="'CenturyGothic'" font-size="31.4959">JANNAT</text>
		<text transform="matrix(1 0 0 1 219.2852 140.0596)" fill="#FFFFFF" font-family="'CenturyGothic'" font-size="31.4959">STUDIOS</text>
		<g>
			<defs>
				<rect id="SVGID_1_" x="-6.084" y="-56.542" width="373.084" height="373.084"/>
			</defs>
			<clipPath id="SVGID_2_">
				<use xlink:href="#SVGID_1_"  overflow="visible"/>
			</clipPath>
			<path clip-path="url(#SVGID_2_)" fill="#FFFFFF" d="M201.15,126.742c0.273-5.779-1.332-11.683-1.332-11.683
				s-5.593,2.007-10.143,5.449c-2.475-7.403-9.004-14.464-9.004-14.464s-6.578,7.113-9.033,14.547
				c-4.563-3.493-10.249-5.532-10.249-5.532s-1.607,5.904-1.333,11.684c-6.527-2.209-14.121-2.101-14.121-2.101
				s2.388,25.766,16.537,21.51c0,0-13.017,2.475-14.331-19.526c5.166-0.245,9.06,0.294,11.994,1.263
				c0.329,0.109,0.644,0.225,0.951,0.343c5.719,2.228,7.369,6.172,7.834,8.557c-0.021,3.799,1.488,7.314,5.635,9.838
				c0,0-7.373-5.619-2.87-16.655c0.168-0.413,0.352-0.836,0.556-1.265c0.604-1.275,1.369-2.619,2.312-4.025
				c0.173-0.261,0.352-0.522,0.539-0.786c1.45-2.053,3.28-4.245,5.58-6.57c2.264,2.292,4.075,4.454,5.514,6.481
				c0.187,0.262,0.367,0.523,0.541,0.779c0.973,1.443,1.756,2.819,2.376,4.121c0.202,0.429,0.387,0.852,0.556,1.265
				c4.5,11.036-2.873,16.655-2.873,16.655c4.347-2.644,5.795-6.375,5.626-10.379c0.603-2.408,2.406-5.95,7.711-8.016
				c0.306-0.118,0.621-0.234,0.948-0.343c2.937-0.969,6.83-1.508,11.994-1.263c-1.314,22.001-14.33,19.526-14.33,19.526
				c14.148,4.256,16.537-21.51,16.537-21.51S207.68,124.534,201.15,126.742 M171.859,126.395c-0.292,0.585-0.573,1.181-0.833,1.78
				c-0.94,2.157-1.661,4.387-1.958,6.568c-0.859-3.803-4.178-6.175-8.05-7.655c-0.08-2.581,0.348-5.773,1.567-9.734
				c3.87,1.247,6.699,2.696,8.759,4.208c0.327,0.24,0.633,0.48,0.925,0.723c0.446,0.377,0.854,0.756,1.219,1.136
				C172.919,124.376,172.371,125.373,171.859,126.395 M180.672,113.659c0,0-3.518,3.804-6.704,8.97
				c-0.449-0.457-0.928-0.895-1.427-1.316c1.061-3.385,3.464-7.442,8.131-12.166c4.621,4.681,7.027,8.709,8.103,12.076
				c-0.509,0.422-0.995,0.864-1.45,1.321C184.15,117.422,180.672,113.659,180.672,113.659 M192.223,134.402
				c-0.324-2.072-1.014-4.183-1.906-6.228c-0.261-0.599-0.541-1.195-0.834-1.78c-0.527-1.052-1.092-2.077-1.676-3.06
				c0.373-0.381,0.787-0.764,1.247-1.144c0.29-0.24,0.595-0.477,0.924-0.712c2.048-1.483,4.843-2.903,8.646-4.126
				c1.218,3.961,1.647,7.154,1.567,9.734C196.436,128.522,193.197,130.797,192.223,134.402"/>
		</g>
	</g>
</g>
<g id="Layer_3" display="none">
	<g id="Layer_4" display="inline">
		<rect opacity="0.77" width="360" height="260"/>
	</g>
	<g display="inline">
		<g id="Layer_6">
			<circle fill="#EF4136" cx="179.62" cy="130.001" r="98.086"/>
		</g>
		<g id="Layer_1_1_">
			<g id="Layer_2">
				<g>
					<circle fill="none" stroke="#FCFAFB" stroke-width="4" stroke-miterlimit="10" cx="180" cy="130" r="103.718"/>
					
						<circle fill="none" stroke="#FFFFFF" stroke-width="2" stroke-linecap="round" stroke-miterlimit="10" stroke-dasharray="2,5" cx="180" cy="130" r="111.655"/>
					<path opacity="0.5" fill="#5D5E5E" enable-background="new    " d="M268.742,131.854l-8.019-4.237l-5.699-5.742l-5.525-6.946
						l-4.811-3.396l-9.8-9.791l-6.95-5.702l-3.561-7.126l-4.455-1.247l-8.018-8.908l-3.385,3.027l-5.88,4.812l-7.482,10.332
						L191.773,98l-3.207,3.207l-2.315,1.069l2.138,3.742l0.175,3.029l3.205,3.208l6.406,2.492l7.116,1.783l6.57,6.946l-6.461-3.921
						l-8.108-3.025l-7.839-2.494l-3.443-5.383v-1.389l-4.688-7.128l5.286-1.78l-13.361-17.816L163.089,76.8l-4.989-6.235
						l-4.811,2.138l-3.03,3.739l-4.276,7.306l-2.851,1.248l-3.029,0.89l-3.742,4.634c0,0-3.92,4.275-4.454,4.275
						c-0.535,0-3.564,4.275-3.564,4.275L123,107.265l-1.604,1.958l-2.851,4.276l-6.95-1.426l-1.78,3.204l-2.851,3.025l-13.54,23.868
						l-4.274,2.122l-4.45,8.171l7.633-0.868l6.256-4.102l9.265-4.422l6.771-7.484l2.696,6.864l13.727-5.724l5.825-8.527l3.052-6.688
						l11.937-10.002l-4.356,7.511l18.253-7.511l-15.324,9.826l-6.586-0.121l-2.481,3.306l-6.577,10.545l10.088,2.808l-2.595-0.067
						l-6.141-0.664l-16.174,6.109l-2.851,4.244l-1.782,4.103l15.144-2.455l12.472-1.647l6.232,2.708l7.836-0.178l0.525-7.129
						l5.329-2.315l-0.208-4.1l4.39-5.7l6.88-2.551v-5.11l10.059,15.58l4.218-0.604l8.09,0.479l4.103,8.923l13.099-3.363v-3.552
						l0.18-4.273l-3.739-3.921l-5.522-3.742l7.482,1.068l4.275,3.742l4.276,1.288l3.027,4.231l12.652,1.43l-0.179-4.813l4.989,2.316
						l7.839-0.533l12.568,3.384l15.759-0.355L268.742,131.854z M152.117,100.144l-6.201,1.377l6.201-5.511V100.144z
						 M180.451,104.251l-9.474-5.557v-3.926l-5.841-5.243l1.573,8.757l-6.12-8.757l-5.092,7.311V90.43l-20.406,15.499l6.9-11.366
						l-5.993,2.273l5.786-8.679l6.028-1.845l5.338-9.738l4.547-1.771l2.687,3.418l11.502,3.735l9.021,13.435l-5.415,1.445
						L180.451,104.251z M244.943,117.088l-4.999-2.881l-7.028-7.452l-8.473-5.235l-2.688-5.513h-4.337l-10.617-9.695l4.443-3.736
						l6.585,7.79h4.548l4.316,7.09l7.463,6.793l7.344,7.325l6.294,4.447l3.711,6.853L244.943,117.088z"/>
					<g>
						<g>
							<g>
								<g>
									
										<line fill="none" stroke="#464C53" stroke-width="1.7" stroke-linecap="round" stroke-linejoin="round" x1="123.572" y1="76.06" x2="234.315" y2="186.805"/>
									<g>
										<polygon fill="#464C53" points="122.306,88.117 124.611,88.036 124.195,76.686 135.546,77.1 135.628,74.797 
											121.803,74.294 										"/>
									</g>
									<g>
										<polygon fill="#464C53" points="222.259,188.07 222.34,185.765 233.688,186.182 233.273,174.83 235.581,174.748 
											236.081,188.572 										"/>
									</g>
								</g>
							</g>
							<g>
								<g>
									
										<line fill="none" stroke="#464C53" stroke-width="1.7" stroke-linecap="round" stroke-linejoin="round" x1="236.061" y1="76.06" x2="125.316" y2="186.805"/>
									<g>
										<polygon fill="#464C53" points="224.003,74.796 224.085,77.099 235.434,76.683 235.02,88.034 237.324,88.116 
											237.826,74.292 										"/>
									</g>
									<g>
										<polygon fill="#464C53" points="124.051,174.748 126.354,174.828 125.939,186.178 137.291,185.765 137.372,188.068 
											123.549,188.57 										"/>
									</g>
								</g>
							</g>
						</g>
					</g>
					<g>
						<path fill="#464C53" d="M235.035,118.619l3.866,3.867L213.59,147.8c-0.275,0.275-0.728,0.275-1.004,0l-2.045-2.045
							c-0.276-0.276-0.276-0.729,0-1.005l9.744-9.744c4.097-3.776,3.546-5.192,5.824-7.468L235.035,118.619L235.035,118.619z
							 M250.238,118.211l-6.917,6.916l1.138,2.366c3.371-1.91,6.375-4.418,8.422-8.421L250.238,118.211z M228.98,107.061
							L228.98,107.061l-0.32,1.413c2.143,2.046,7.325,3.504,4.464,6.553c0.363,0.452,9.699,9.7,9.699,9.7l6.828-6.829
							C243.999,115.934,236.485,108.058,228.98,107.061z"/>
					</g>
					<g>
						<g id="Artwork_11_">
							<path fill="#464C53" d="M145.907,143.141l-7.105-2.427c0,0-0.296-0.141-0.41-0.254c-0.771-0.771-3.461-3.461-6.936-6.936
								c-0.139-0.096-0.045-0.23,0-0.278c4.848-4.848,9.578-9.577,12.816-12.814c3.073-3.074,1.841-5.9-1.062-2.996
								c-0.761,0.761-2.332,0.785-4.276,0.372c-0.431-0.09-0.857-0.188-1.309-0.294c-4.521-1.048-9.612-2.228-17.24,4.7
								c-0.042,0.037-0.148,0.153-0.314-0.014c-1.48-1.479-2.621-2.681-3.678-3.739c-0.231-0.231-0.048-0.392-0.048-0.392
								l0.555-0.556c0.701-0.698,0.537-1.608-0.361-2.021l-7.77-3.579c-0.898-0.414-1.295-0.018-0.882,0.881l3.577,7.769
								c0.415,0.899,1.325,1.062,2.024,0.362l0.445-0.445c0,0,0.245-0.316,0.501-0.062c1.054,1.055,2.148,2.149,3.626,3.626
								c0.185,0.164,0.164,0.306,0.13,0.343c-7.147,7.792-5.822,13.789-4.747,18.648l0.05,0.228c0.47,2.13,0.278,3.808-0.741,4.825
								c-2.209,2.21-1.42,5.278,3.371,0.488c3.306-3.307,8.167-8.168,13.124-13.123c0.036-0.037,0.112-0.09,0.26,0.034
								c3.534,3.536,6.25,6.251,6.959,6.96c0.092,0.093,0.215,0.362,0.215,0.362l2.431,7.121c0.32,0.935,0.9,0.958,1.29,0.048
								l0.957-2.231c0.391-0.908,1.452-1.972,2.362-2.361l2.234-0.958C146.865,144.04,146.844,143.461,145.907,143.141z
								 M136.923,120.545c0.446,0.104,0.908,0.211,1.367,0.309c0.545,0.116,1.069,0.198,1.57,0.247c0,0-7.72,7.723-10.293,10.296
								c-0.137,0.136-0.269-0.03-0.269-0.03c-2.286-2.288-4.447-4.448-6.705-6.703c-0.108-0.126-0.051-0.2-0.013-0.237
								C128.933,118.697,132.821,119.597,136.923,120.545z M116.787,144.173c-0.045-0.495-0.127-1.021-0.25-1.583l-0.051-0.228
								c-1.006-4.542-2.042-9.23,3.91-15.771c0.034-0.037,0.152-0.079,0.255,0.041c2.258,2.259,4.463,4.464,6.751,6.752
								c0,0,0.068,0.108-0.035,0.209C124.692,136.271,116.787,144.173,116.787,144.173z"/>
						</g>
					</g>
					<g>
						<path fill="#464C53" d="M189.763,74.896v-4.624c0-0.519-0.402-0.942-0.921-0.942h-17.078c-0.519,0-0.921,0.424-0.921,0.942
							v4.624h3.304v-2.265h12.313v2.265H189.763z"/>
						<path fill="#464C53" d="M161.035,76.735c-0.519,0-0.949,0.439-0.949,0.958v25.261c0,0.52,0.424,0.958,0.949,0.958h3.534v0.85
							c0,0.113,0.032,0.236,0.066,0.33c0.132,0.331,0.477,0.614,0.886,0.614h5.331c0.411,0,0.761-0.283,0.888-0.614
							c0.032-0.094,0.042-0.222,0.042-0.33v-0.85h17.079v0.85c0,0.113,0.009,0.236,0.041,0.33c0.134,0.331,0.479,0.614,0.889,0.614
							h5.331c0.41,0,0.76-0.283,0.886-0.614c0.033-0.094,0.066-0.222,0.066-0.33v-0.85h3.487c0.519,0,0.947-0.438,0.947-0.958
							V77.693c0-0.519-0.423-0.958-0.947-0.958h-9.799h-3.303h-12.315h-3.303H161.035z M172.069,88.349
							c0-0.521,0.449-0.948,0.968-0.948h4.316v-2.878V83.03c0-0.519,0.424-0.963,0.949-0.963h3.999c0.521,0,0.95,0.444,0.95,0.963
							v1.492V87.4h4.316c0.519,0,0.921,0.428,0.921,0.948v3.948c0,0.519-0.402,0.947-0.921,0.947h-4.316v4.371
							c0,0.519-0.426,0.962-0.95,0.962h-3.999c-0.52,0-0.949-0.443-0.949-0.962V93.25h-4.316c-0.519,0-0.968-0.429-0.968-0.947
							V88.349L172.069,88.349z"/>
					</g>
					<g>
						<g>
							<path fill="#464C53" d="M194.147,185.209l-7.741-3.218l7.746-3.195c1.193-0.495,1.763-1.86,1.271-3.053
								c-0.496-1.192-1.864-1.763-3.055-1.271l-12.066,4.98l-12.057-5.011c-1.189-0.494-2.56,0.071-3.056,1.263
								c-0.495,1.192,0.069,2.561,1.261,3.055l7.74,3.221l-7.748,3.194c-1.193,0.492-1.762,1.86-1.27,3.054
								c0.373,0.901,1.243,1.445,2.162,1.445c0.297,0,0.599-0.056,0.891-0.181l12.069-4.979l12.059,5.011
								c0.293,0.121,0.595,0.18,0.894,0.18c0.917,0,1.785-0.541,2.16-1.441C195.901,187.072,195.338,185.704,194.147,185.209z"/>
							<path fill="#464C53" d="M180.298,176.478c5.463,0,9.891-4.429,9.891-9.889c0-1.373-0.625-3.18-1.558-5.12
								c-0.12-0.254-0.406-0.393-0.68-0.332c-0.276,0.06-0.478,0.304-0.482,0.586c-0.035,2.054-0.591,3.448-1.271,4.394
								c-0.082,0.108-0.228,0.143-0.349,0.079c-0.119-0.063-0.175-0.208-0.125-0.335c0.479-1.264,0.249-3.137-2.193-5.775
								c-2.286-2.471-2.851-4.411-2.743-5.83c0.021-0.28-0.137-0.545-0.395-0.661c-0.257-0.116-0.561-0.056-0.756,0.146
								c-2.336,2.424-5.21,6.393-4.376,10.409c0.035,0.173-0.055,0.342-0.218,0.405c-0.161,0.064-0.344,0.005-0.437-0.143
								c-0.595-0.958-1.138-2.39-0.938-4.279c0.032-0.309-0.156-0.596-0.451-0.689s-0.617,0.034-0.765,0.306
								c-1.075,1.936-2.042,4.366-2.042,6.844C170.408,172.049,174.835,176.478,180.298,176.478z"/>
						</g>
					</g>
				</g>
			</g>
		</g>
		<g id="THE_GEAR_UP" opacity="0.98">
			<text transform="matrix(1 0 0 1 127.1748 141.3408)" fill="#FFFFFF" font-family="'AlfaSlabOne-Regular'" font-size="32.518">GEAR </text>
			<text transform="matrix(1 0 0 1 187.5566 168.5049)" fill="#FFFFFF" font-family="'AlfaSlabOne-Regular'" font-size="29.8082">UP</text>
			<text transform="matrix(1 0 0 1 131.4512 114.2246)" fill="#FFFFFF" font-family="'Pacifico'" font-size="10.8393">The </text>
		</g>
	</g>
</g>
</svg>
